<?xml version="1.0" encoding="utf-8"?>
<svg id="master-artboard" viewBox="0 0 1400 980" version="1.1" xmlns="http://www.w3.org/2000/svg" x="0px" y="0px" style="enable-background:new 0 0 1400 980;" width="1400px" height="980px" xmlns:xlink="http://www.w3.org/1999/xlink">


<g id="Objects">
	<g>
		<g>
			<path d="M 0 0 H 1400 V 778 H 0 V 0 Z" class="st0" style="fill: rgb(157, 223, 221);"/>
			<path d="M 0 667 H 1400 V 778 H 0 V 667 Z" class="st1" style="fill: rgb(195, 232, 231);"/>
			<path d="M 0 724 H 1400 V 980 H 0 V 724 Z" class="st2" style="fill: rgb(76, 167, 162);"/>
		</g>
		<g>
			<g>
				<defs>
					<filter id="Adobe_OpacityMaskFilter" filterUnits="userSpaceOnUse" x="94.5" y="477.1" width="1282" height="246.9">
						<feFlood style="flood-color:white;flood-opacity:1" result="back"/>
						<feBlend in="SourceGraphic" in2="back" mode="normal"/>
					</filter>
				</defs>
				<mask maskUnits="userSpaceOnUse" x="94.5" y="477.1" width="1282" height="246.9" id="SVGID_1_">
					<g class="st3" style="filter: url('#Adobe_OpacityMaskFilter');">
						<defs>
							<filter id="Adobe_OpacityMaskFilter_1_" filterUnits="userSpaceOnUse" x="94.5" y="477.1" width="1282" height="246.9">
								<feFlood style="flood-color:white;flood-opacity:1" result="back"/>
								<feBlend in="SourceGraphic" in2="back" mode="normal"/>
							</filter>
						</defs>
						<mask maskUnits="userSpaceOnUse" x="94.5" y="477.1" width="1282" height="246.9" id="SVGID_1_">
							<g class="st4" style="filter: url('#Adobe_OpacityMaskFilter_1_');">
							</g>
						</mask>
						<linearGradient id="SVGID_2_" gradientUnits="userSpaceOnUse" x1="137.4397" y1="357.9405" x2="1331.859" y2="823.6756">
							<stop offset="1.081080e-002" style="stop-color:#FFFFFF"/>
							<stop offset="1" style="stop-color:#000000"/>
						</linearGradient>
						<path d="M 94.5 477.1000061035156 L 786.2000122070312 724 L 1376.5999755859375 724 L 791.7000122070312 477.1000061035156 Z" class="st5" style="mask: url('#SVGID_1_'); fill: url('#SVGID_2_');"/>
					</g>
				</mask>
				<linearGradient id="SVGID_3_" gradientUnits="userSpaceOnUse" x1="137.4397" y1="357.9405" x2="1331.859" y2="823.6756">
					<stop offset="1.081080e-002" style="stop-color:#FFFFFF"/>
					<stop offset="1" style="stop-color:#FFFFFF"/>
				</linearGradient>
				<path d="M 94.5 477.1000061035156 L 786.2000122070312 724 L 1376.5999755859375 724 L 791.7000122070312 477.1000061035156 Z" class="st6" style="opacity: 0.32; fill: url('#SVGID_3_');"/>
				<g>
					<path d="M 94.5 97 H 791.599976 V 477.100006 H 94.5 V 97 Z" class="st7" style="fill: rgb(124, 189, 209);"/>
					<g>
						<path d="M 509.100006 153 H 632.100006 V 462.100006 H 509.100006 V 153 Z" class="st8" style="fill: rgb(100, 169, 186);"/>
						<g>
							<path d="M 522.400024 167.699997 H 545.700024 V 192.099997 H 522.400024 V 167.699997 Z" class="st9" style="fill: rgb(80, 137, 150);"/>
							<path d="M 551.200012 197.800003 H 574.500011 V 222.200003 H 551.200012 V 197.800003 Z" class="st9" style="fill: rgb(80, 137, 150);"/>
							<path d="M 579.799988 167.699997 H 603.099987 V 192.099997 H 579.799988 V 167.699997 Z" class="st9" style="fill: rgb(80, 137, 150);"/>
							<path d="M 579.799988 230.300003 H 603.099987 V 254.700003 H 579.799988 V 230.300003 Z" class="st9" style="fill: rgb(80, 137, 150);"/>
							<path d="M 579.799988 267.700012 H 603.099987 V 292.100012 H 579.799988 V 267.700012 Z" class="st9" style="fill: rgb(80, 137, 150);"/>
						</g>
					</g>
					<g>
						<path d="M 756.7999877929688 462.1000061035156 L 652.0999755859375 462.1000061035156 L 652.0999755859375 264.79998779296875 L 756.7999877929688 211 Z" class="st8" style="fill: rgb(100, 169, 186);"/>
						<g>
							<path d="M 661.099976 276.200012 H 670.099976 V 352.200012 H 661.099976 V 276.200012 Z" class="st9" style="fill: rgb(80, 137, 150);"/>
							<path d="M 680.400024 276.200012 H 689.400024 V 352.200012 H 680.400024 V 276.200012 Z" class="st9" style="fill: rgb(80, 137, 150);"/>
							<path d="M 699.900024 276.200012 H 708.900024 V 352.200012 H 699.900024 V 276.200012 Z" class="st9" style="fill: rgb(80, 137, 150);"/>
							<path d="M 719.5 276.200012 H 728.5 V 352.200012 H 719.5 V 276.200012 Z" class="st9" style="fill: rgb(80, 137, 150);"/>
							<path d="M 738.799988 276.200012 H 747.799988 V 352.200012 H 738.799988 V 276.200012 Z" class="st9" style="fill: rgb(80, 137, 150);"/>
						</g>
					</g>
					<g>
						<path d="M 475.79998779296875 231.6999969482422 L 475.79998779296875 217.5 L 459.1000061035156 217.5 L 459.1000061035156 207.6999969482422 L 443.1000061035156 207.6999969482422 L 443.1000061035156 202.1999969482422 L 401.3999938964844 202.1999969482422 L 401.3999938964844 207.6999969482422 L 385.5 207.6999969482422 L 385.5 217.5 L 368.79998779296875 217.5 L 368.79998779296875 231.6999969482422 L 360.79998779296875 231.6999969482422 L 360.79998779296875 462.1000061035156 L 483.79998779296875 462.1000061035156 L 483.79998779296875 231.6999969482422 Z" class="st8" style="fill: rgb(100, 169, 186);"/>
						<g>
							<path d="M 373.299988 248.600006 H 383.499988 V 324.600006 H 373.299988 V 248.600006 Z" class="st9" style="fill: rgb(80, 137, 150);"/>
							<path d="M 395 248.600006 H 405.2 V 324.600006 H 395 V 248.600006 Z" class="st9" style="fill: rgb(80, 137, 150);"/>
							<path d="M 417.200012 248.600006 H 427.400012 V 324.600006 H 417.200012 V 248.600006 Z" class="st9" style="fill: rgb(80, 137, 150);"/>
							<path d="M 439.299988 248.600006 H 449.499988 V 324.600006 H 439.299988 V 248.600006 Z" class="st9" style="fill: rgb(80, 137, 150);"/>
							<path d="M 461.100006 248.600006 H 471.300006 V 324.600006 H 461.100006 V 248.600006 Z" class="st9" style="fill: rgb(80, 137, 150);"/>
						</g>
					</g>
					<path class="st10" d="M94.5,97v380.1h697.1V97H94.5z M566.4,112v350.1H319.8V112H566.4z M109.5,112h199.2v350.1H109.5V112z&#10;&#9;&#9;&#9;&#9;&#9;&#9; M776.7,462.1H577.4V112h199.2V462.1z" style="fill: rgb(238, 255, 255);"/>
					<g>
						<defs>
							<path d="M 94.5 97 H 791.599976 V 477.100006 H 94.5 V 97 Z" id="SVGID_4_"/>
						</defs>
						<clipPath id="SVGID_5_">
							<use style="overflow:visible;" xlink:href="#SVGID_4_"/>
						</clipPath>
						<g class="st11" style="clip-path: url('#SVGID_5_');">
							<g class="st12" style="opacity: 0.29;">
								
									<path d="M 8.1 151.699997 H 875.800013 V 252.799995 H 8.1 V 151.699997 Z" transform="matrix(0.9292 -0.3695 0.3695 0.9292 -43.4628 177.6448)" class="st13" style="fill: rgb(255, 255, 255);"/>
							</g>
							<g class="st12" style="opacity: 0.29;">
								
									<path d="M 2.8 326.100006 H 870.500012 V 391.700005 H 2.8 V 326.100006 Z" transform="matrix(0.9292 -0.3695 0.3695 0.9292 -101.698 186.7696)" class="st13" style="fill: rgb(255, 255, 255);"/>
							</g>
							<g class="st12" style="opacity: 0.29;">
								
									<path d="M -5.5 451.799988 H 862.200012 V 495.299988 H -5.5 V 451.799988 Z" transform="matrix(0.9292 -0.3695 0.3695 0.9292 -144.6797 191.8229)" class="st13" style="fill: rgb(255, 255, 255);"/>
							</g>
						</g>
					</g>
				</g>
			</g>
			<g>
				<g>
					<path d="M 834.599976 775.799988 H 1001.399979 V 868.499985 H 834.599976 V 775.799988 Z" class="st14" style="fill: rgb(217, 143, 74);"/>
					<path d="M 881.799988 817.900024 H 954.299988 V 840.100025 H 881.799988 V 817.900024 Z" class="st13" style="fill: rgb(255, 255, 255);"/>
					<path d="M 828.299988 760.599976 H 1008.199982 V 789.799976 H 828.299988 V 760.599976 Z" class="st15" style="fill: rgb(232, 159, 93);"/>
					<path d="M 834.5999755859375 789.7999877929688 L 1001.4000244140625 868.4000244140625 L 1001.4000244140625 789.7999877929688 Z" class="st16" style="opacity: 0.13; fill: rgb(41, 31, 25);"/>
					<path d="M 881.799988 789.799988 H 954.299988 V 795.999988 H 881.799988 V 789.799988 Z" class="st17" style="fill: rgb(112, 74, 38);"/>
				</g>
				<g>
					<path d="M 834.599976 667.900024 H 1001.399979 V 760.600021 H 834.599976 V 667.900024 Z" class="st14" style="fill: rgb(217, 143, 74);"/>
					<path d="M 881.799988 710 H 954.299988 V 732.200001 H 881.799988 V 710 Z" class="st13" style="fill: rgb(255, 255, 255);"/>
					<path d="M 828.299988 652.700012 H 1008.199982 V 681.900013 H 828.299988 V 652.700012 Z" class="st15" style="fill: rgb(232, 159, 93);"/>
					<path d="M 834.5999755859375 681.9000244140625 L 1001.4000244140625 760.5999755859375 L 1001.4000244140625 681.9000244140625 Z" class="st16" style="opacity: 0.13; fill: rgb(41, 31, 25);"/>
					<path d="M 881.799988 681.900024 H 954.299988 V 688.100024 H 881.799988 V 681.900024 Z" class="st17" style="fill: rgb(112, 74, 38);"/>
				</g>
			</g>
			<g>
				<g>
					<g>
						<path d="M 1050 160 H 1314.399994 V 500.899994 H 1050 V 160 Z" class="st18" style="fill: rgb(110, 80, 32);"/>
						<path d="M 1314.4000244140625 160 L 1050 160 L 1314.4000244140625 229.5 Z" class="st19" style="fill: rgb(89, 65, 25);"/>
						<path d="M 1314.4000244140625 245.5 L 1050 245.5 L 1314.4000244140625 315 Z" class="st19" style="fill: rgb(89, 65, 25);"/>
						<path d="M 1314.4000244140625 338.79998779296875 L 1050 338.79998779296875 L 1314.4000244140625 408.29998779296875 Z" class="st19" style="fill: rgb(89, 65, 25);"/>
						<path d="M 1314.4000244140625 428.70001220703125 L 1050 428.70001220703125 L 1314.4000244140625 498.20001220703125 Z" class="st19" style="fill: rgb(89, 65, 25);"/>
						<path class="st20" d="M1029.5,139.1V724h305.4V139.1H1029.5z M1314.4,160v69.5H1050V160H1314.4z M1050,322.3v-76.7h264.4v76.7&#10;&#9;&#9;&#9;&#9;&#9;&#9;&#9;H1050z M1314.4,338.5v73.6H1050v-73.6H1314.4z M1050,500.9v-72.6h264.4v72.6H1050z" style="fill: rgb(212, 152, 59);"/>
						<g>
							<g>
								<path d="M 1050 524.5 H 1314.399994 V 608.900002 H 1050 V 524.5 Z" class="st21" style="fill: rgb(156, 111, 43);"/>
								<path class="st22" d="M1207.4,572.8H1157c-3.3,0-6.1-2.7-6.1-6.1l0,0c0-3.3,2.7-6.1,6.1-6.1h50.4c3.3,0,6.1,2.7,6.1,6.1l0,0&#10;&#9;&#9;&#9;&#9;&#9;&#9;&#9;&#9;&#9;C1213.4,570.1,1210.7,572.8,1207.4,572.8z" style="fill: rgb(94, 69, 27);"/>
							</g>
							<g>
								<path d="M 1050 629.799988 H 1314.399994 V 703.499985 H 1050 V 629.799988 Z" class="st21" style="fill: rgb(156, 111, 43);"/>
								<path class="st22" d="M1207.4,674.1H1157c-3.3,0-6.1-2.7-6.1-6.1l0,0c0-3.3,2.7-6.1,6.1-6.1h50.4c3.3,0,6.1,2.7,6.1,6.1l0,0&#10;&#9;&#9;&#9;&#9;&#9;&#9;&#9;&#9;&#9;C1213.4,671.4,1210.7,674.1,1207.4,674.1z" style="fill: rgb(94, 69, 27);"/>
							</g>
						</g>
						<g>
							<path class="st23" d="M1060.7,173.6l-8.8,1.7c-1.3,0.2-2.1,1.5-1.8,2.7l9.7,49.7c0.2,1.3,1.5,2.1,2.7,1.8l8.8-1.7&#10;&#9;&#9;&#9;&#9;&#9;&#9;&#9;&#9;c1.3-0.2,2.1-1.5,1.8-2.7l-9.7-49.7C1063.2,174.2,1062,173.3,1060.7,173.6z" style="fill: rgb(59, 74, 138);"/>
							<g>
								<g>
									
										<path d="M 1051 181.399994 H 1064.7 V 182.999994 H 1051 V 181.399994 Z" transform="matrix(0.9815 -0.1916 0.1916 0.9815 -15.3122 206.0037)" class="st24" style="fill: rgb(255, 200, 109);"/>
									
										<path d="M 1051.800049 185.100006 H 1065.500049 V 187.500006 H 1051.800049 V 185.100006 Z" transform="matrix(0.9815 -0.1916 0.1916 0.9815 -16.09 206.2273)" class="st24" style="fill: rgb(255, 200, 109);"/>
								</g>
								<g>
									
										<path d="M 1058.5 220.100006 H 1072.2 V 221.700006 H 1058.5 V 220.100006 Z" transform="matrix(0.9815 -0.1916 0.1916 0.9815 -22.5938 208.1696)" class="st24" style="fill: rgb(255, 200, 109);"/>
									
										<path d="M 1057.599976 215.100006 H 1071.299975 V 217.500006 H 1057.599976 V 215.100006 Z" transform="matrix(0.9815 -0.1916 0.1916 0.9815 -21.7267 207.9117)" class="st24" style="fill: rgb(255, 200, 109);"/>
								</g>
							</g>
						</g>
						<g>
							<path class="st23" d="M1074.5,173.5l-8.8,2c-1.3,0.3-2,1.5-1.8,2.8l11,49.4c0.3,1.3,1.5,2,2.8,1.8l8.8-2&#10;&#9;&#9;&#9;&#9;&#9;&#9;&#9;&#9;c1.3-0.3,2-1.5,1.8-2.8l-11-49.4C1077,174,1075.8,173.2,1074.5,173.5z" style="fill: rgb(59, 74, 138);"/>
							<g>
								<g>
									
										<path d="M 1065 181.300003 H 1078.7 V 182.900003 H 1065 V 181.300003 Z" transform="matrix(0.976 -0.2176 0.2176 0.976 -13.9502 237.6385)" class="st24" style="fill: rgb(255, 200, 109);"/>
									
										<path d="M 1065.900024 185.100006 H 1079.600024 V 187.500006 H 1065.900024 V 185.100006 Z" transform="matrix(0.976 -0.2176 0.2176 0.976 -14.8237 237.9368)" class="st24" style="fill: rgb(255, 200, 109);"/>
								</g>
								<g>
									
										<path d="M 1073.599976 219.899994 H 1087.299975 V 221.499994 H 1073.599976 V 219.899994 Z" transform="matrix(0.976 -0.2176 0.2176 0.976 -22.1295 240.4256)" class="st24" style="fill: rgb(255, 200, 109);"/>
									
										<path d="M 1072.599976 214.899994 H 1086.299975 V 217.299994 H 1072.599976 V 214.899994 Z" transform="matrix(0.976 -0.2176 0.2176 0.976 -21.1555 240.1009)" class="st24" style="fill: rgb(255, 200, 109);"/>
								</g>
							</g>
						</g>
						<g>
							<path class="st25" d="M1089.1,175l-8.3,3.5c-1.2,0.5-1.7,1.9-1.2,3l19.6,46.6c0.5,1.2,1.9,1.7,3,1.2l8.3-3.5&#10;&#9;&#9;&#9;&#9;&#9;&#9;&#9;&#9;c1.2-0.5,1.7-1.9,1.2-3l-19.6-46.6C1091.7,175,1090.3,174.5,1089.1,175z" style="fill: rgb(231, 69, 66);"/>
							<g>
								<g>
									<g>
										
											<path d="M 1081.199951 183.199997 H 1094.899951 V 184.799997 H 1081.199951 V 183.199997 Z" transform="matrix(0.9218 -0.3876 0.3876 0.9218 13.7345 436.101)" class="st26" style="fill: rgb(97, 29, 28);"/>
										
											<path d="M 1082.800049 186.699997 H 1096.500049 V 189.099997 H 1082.800049 V 186.699997 Z" transform="matrix(0.9218 -0.3876 0.3876 0.9218 12.3576 437.0454)" class="st26" style="fill: rgb(97, 29, 28);"/>
									</g>
									<g>
										
											<path d="M 1096.5 219.600006 H 1110.2 V 221.200006 H 1096.5 V 219.600006 Z" transform="matrix(0.9218 -0.3876 0.3876 0.9218 0.8287 444.8863)" class="st26" style="fill: rgb(97, 29, 28);"/>
										
											<path d="M 1094.699951 214.899994 H 1108.399951 V 217.299994 H 1094.699951 V 214.899994 Z" transform="matrix(0.9218 -0.3876 0.3876 0.9218 2.3657 443.8414)" class="st26" style="fill: rgb(97, 29, 28);"/>
									</g>
								</g>
							</g>
							<path class="st13" d="M1101.1,208.7l-7.3-16.1c-0.2-0.4-0.6-0.5-1-0.4l-2.8,1.3c-0.4,0.2-0.5,0.6-0.4,1l7.3,16.1&#10;&#9;&#9;&#9;&#9;&#9;&#9;&#9;&#9;c0.2,0.4,0.6,0.5,1,0.4l2.8-1.3C1101.1,209.5,1101.3,209,1101.1,208.7z" style="fill: rgb(255, 255, 255);"/>
						</g>
						<g>
							<path class="st25" d="M1104.1,175l-8.3,3.5c-1.2,0.5-1.7,1.9-1.2,3l19.6,46.6c0.5,1.2,1.9,1.7,3,1.2l8.3-3.5&#10;&#9;&#9;&#9;&#9;&#9;&#9;&#9;&#9;c1.2-0.5,1.7-1.9,1.2-3l-19.6-46.6C1106.7,175,1105.3,174.5,1104.1,175z" style="fill: rgb(231, 69, 66);"/>
							<g>
								<g>
									<g>
										
											<path d="M 1096.199951 183.199997 H 1109.899951 V 184.799997 H 1096.199951 V 183.199997 Z" transform="matrix(0.9218 -0.3876 0.3876 0.9218 14.9039 441.8994)" class="st26" style="fill: rgb(97, 29, 28);"/>
										
											<path d="M 1097.800049 186.699997 H 1111.500049 V 189.099997 H 1097.800049 V 186.699997 Z" transform="matrix(0.9218 -0.3876 0.3876 0.9218 13.5271 442.8439)" class="st26" style="fill: rgb(97, 29, 28);"/>
									</g>
									<g>
										
											<path d="M 1111.5 219.600006 H 1125.2 V 221.200006 H 1111.5 V 219.600006 Z" transform="matrix(0.9218 -0.3876 0.3876 0.9218 1.9982 450.6848)" class="st26" style="fill: rgb(97, 29, 28);"/>
										
											<path d="M 1109.699951 214.899994 H 1123.399951 V 217.299994 H 1109.699951 V 214.899994 Z" transform="matrix(0.9218 -0.3876 0.3876 0.9218 3.5352 449.6399)" class="st26" style="fill: rgb(97, 29, 28);"/>
									</g>
								</g>
							</g>
							<path class="st13" d="M1116.1,208.7l-7.3-16.1c-0.2-0.4-0.6-0.5-1-0.4l-2.8,1.3c-0.4,0.2-0.5,0.6-0.4,1l7.3,16.1&#10;&#9;&#9;&#9;&#9;&#9;&#9;&#9;&#9;c0.2,0.4,0.6,0.5,1,0.4l2.8-1.3C1116.1,209.5,1116.3,209,1116.1,208.7z" style="fill: rgb(255, 255, 255);"/>
						</g>
						<g>
							<path class="st25" d="M1304.6,175l8.3,3.5c1.2,0.5,1.7,1.9,1.2,3l-19.6,46.6c-0.5,1.2-1.9,1.7-3,1.2l-8.3-3.5&#10;&#9;&#9;&#9;&#9;&#9;&#9;&#9;&#9;c-1.2-0.5-1.7-1.9-1.2-3l19.6-46.6C1302.1,175,1303.4,174.5,1304.6,175z" style="fill: rgb(231, 69, 66);"/>
							<g>
								<g>
									<g>
										
											<path d="M 1304.900024 177.199997 H 1306.500024 V 190.899997 H 1304.900024 V 177.199997 Z" transform="matrix(0.3876 -0.9218 0.9218 0.3876 630.0178 1316.342)" class="st26" style="fill: rgb(97, 29, 28);"/>
										
											<path d="M 1302.900024 181.100006 H 1305.300025 V 194.800006 H 1302.900024 V 181.100006 Z" transform="matrix(0.3876 -0.9218 0.9218 0.3876 625.4303 1317.213)" class="st26" style="fill: rgb(97, 29, 28);"/>
									</g>
									<g>
										
											<path d="M 1289.599976 213.600006 H 1291.199976 V 227.300006 H 1289.599976 V 213.600006 Z" transform="matrix(0.3876 -0.9218 0.9218 0.3876 587.0996 1324.5197)" class="st26" style="fill: rgb(97, 29, 28);"/>
										
											<path d="M 1291.099976 209.199997 H 1293.499976 V 222.899997 H 1291.099976 V 209.199997 Z" transform="matrix(0.3876 -0.9218 0.9218 0.3876 592.2095 1323.5457)" class="st26" style="fill: rgb(97, 29, 28);"/>
									</g>
								</g>
							</g>
							<path class="st13" d="M1292.6,208.7l7.3-16.1c0.2-0.4,0.6-0.5,1-0.4l2.8,1.3c0.4,0.2,0.5,0.6,0.4,1l-7.3,16.1&#10;&#9;&#9;&#9;&#9;&#9;&#9;&#9;&#9;c-0.2,0.4-0.6,0.5-1,0.4l-2.8-1.3C1292.6,209.5,1292.5,209,1292.6,208.7z" style="fill: rgb(255, 255, 255);"/>
						</g>
						<g>
							<path class="st25" d="M1288.6,175l8.3,3.5c1.2,0.5,1.7,1.9,1.2,3l-19.6,46.6c-0.5,1.2-1.9,1.7-3,1.2l-8.3-3.5&#10;&#9;&#9;&#9;&#9;&#9;&#9;&#9;&#9;c-1.2-0.5-1.7-1.9-1.2-3l19.6-46.6C1286.1,175,1287.4,174.5,1288.6,175z" style="fill: rgb(231, 69, 66);"/>
							<g>
								<g>
									<g>
										
											<path d="M 1288.900024 177.199997 H 1290.500024 V 190.899997 H 1288.900024 V 177.199997 Z" transform="matrix(0.3876 -0.9218 0.9218 0.3876 620.2136 1301.5841)" class="st26" style="fill: rgb(97, 29, 28);"/>
										
											<path d="M 1286.900024 181.100006 H 1289.300025 V 194.800006 H 1286.900024 V 181.100006 Z" transform="matrix(0.3876 -0.9218 0.9218 0.3876 615.6262 1302.4551)" class="st26" style="fill: rgb(97, 29, 28);"/>
									</g>
									<g>
										
											<path d="M 1273.599976 213.600006 H 1275.199976 V 227.300006 H 1273.599976 V 213.600006 Z" transform="matrix(0.3876 -0.9218 0.9218 0.3876 577.2954 1309.7617)" class="st26" style="fill: rgb(97, 29, 28);"/>
										
											<path d="M 1275 209.199997 H 1277.4 V 222.899997 H 1275 V 209.199997 Z" transform="matrix(0.3876 -0.9218 0.9218 0.3876 582.4053 1308.7877)" class="st26" style="fill: rgb(97, 29, 28);"/>
									</g>
								</g>
							</g>
							<path class="st13" d="M1276.6,208.7l7.3-16.1c0.2-0.4,0.6-0.5,1-0.4l2.8,1.3c0.4,0.2,0.5,0.6,0.4,1l-7.3,16.1&#10;&#9;&#9;&#9;&#9;&#9;&#9;&#9;&#9;c-0.2,0.4-0.6,0.5-1,0.4l-2.8-1.3C1276.6,209.5,1276.5,209,1276.6,208.7z" style="fill: rgb(255, 255, 255);"/>
						</g>
						<g>
							<path class="st25" d="M1272.3,175l8.3,3.5c1.2,0.5,1.7,1.9,1.2,3l-19.6,46.6c-0.5,1.2-1.9,1.7-3,1.2l-8.3-3.5&#10;&#9;&#9;&#9;&#9;&#9;&#9;&#9;&#9;c-1.2-0.5-1.7-1.9-1.2-3l19.6-46.6C1269.8,175,1271.2,174.5,1272.3,175z" style="fill: rgb(231, 69, 66);"/>
							<g>
								<g>
									<g>
										
											<path d="M 1272.599976 177.199997 H 1274.199976 V 190.899997 H 1272.599976 V 177.199997 Z" transform="matrix(0.3876 -0.9218 0.9218 0.3876 610.2432 1286.5732)" class="st26" style="fill: rgb(97, 29, 28);"/>
										
											<path d="M 1270.599976 181.100006 H 1272.999976 V 194.800006 H 1270.599976 V 181.100006 Z" transform="matrix(0.3876 -0.9218 0.9218 0.3876 605.6527 1287.4424)" class="st26" style="fill: rgb(97, 29, 28);"/>
									</g>
									<g>
										
											<path d="M 1257.300049 213.600006 H 1258.900049 V 227.300006 H 1257.300049 V 213.600006 Z" transform="matrix(0.3876 -0.9218 0.9218 0.3876 567.319 1294.7471)" class="st26" style="fill: rgb(97, 29, 28);"/>
										
											<path d="M 1258.800049 209.199997 H 1261.200049 V 222.899997 H 1258.800049 V 209.199997 Z" transform="matrix(0.3876 -0.9218 0.9218 0.3876 572.4288 1293.7731)" class="st26" style="fill: rgb(97, 29, 28);"/>
									</g>
								</g>
							</g>
							<path class="st13" d="M1260.3,208.7l7.3-16.1c0.2-0.4,0.6-0.5,1-0.4l2.8,1.3c0.4,0.2,0.5,0.6,0.4,1l-7.3,16.1&#10;&#9;&#9;&#9;&#9;&#9;&#9;&#9;&#9;c-0.2,0.4-0.6,0.5-1,0.4l-2.8-1.3C1260.3,209.5,1260.2,209,1260.3,208.7z" style="fill: rgb(255, 255, 255);"/>
						</g>
						<g>
							<g>
								<path d="M 1074.099976 275.799988 H 1154.799973 V 291.199987 H 1074.099976 V 275.799988 Z" class="st13" style="fill: rgb(255, 255, 255);"/>
								<g>
									<g>
										<path d="M 1074.099976 277.100006 H 1154.799973 V 278.200006 H 1074.099976 V 277.100006 Z" class="st27" style="fill: rgb(222, 222, 222);"/>
										<path d="M 1074.099976 279.700012 H 1154.799973 V 280.800012 H 1074.099976 V 279.700012 Z" class="st27" style="fill: rgb(222, 222, 222);"/>
									</g>
									<g>
										<path d="M 1074.099976 282.799988 H 1154.799973 V 283.899988 H 1074.099976 V 282.799988 Z" class="st27" style="fill: rgb(222, 222, 222);"/>
										<path d="M 1074.099976 285.399994 H 1154.799973 V 286.499994 H 1074.099976 V 285.399994 Z" class="st27" style="fill: rgb(222, 222, 222);"/>
										<path d="M 1074.099976 288.399994 H 1154.799973 V 289.499994 H 1074.099976 V 288.399994 Z" class="st27" style="fill: rgb(222, 222, 222);"/>
									</g>
								</g>
							</g>
							<g>
								<g>
									<path d="M 1082.400024 291.200012 H 1163.100021 V 306.600012 H 1082.400024 V 291.200012 Z" class="st13" style="fill: rgb(255, 255, 255);"/>
									<g>
										<g>
											<path d="M 1082.400024 292.5 H 1163.100021 V 293.6 H 1082.400024 V 292.5 Z" class="st27" style="fill: rgb(222, 222, 222);"/>
											<path d="M 1082.400024 295.100006 H 1163.100021 V 296.200006 H 1082.400024 V 295.100006 Z" class="st27" style="fill: rgb(222, 222, 222);"/>
										</g>
										<g>
											<path d="M 1082.400024 298.200012 H 1163.100021 V 299.300012 H 1082.400024 V 298.200012 Z" class="st27" style="fill: rgb(222, 222, 222);"/>
											<path d="M 1082.400024 300.799988 H 1163.100021 V 301.899988 H 1082.400024 V 300.799988 Z" class="st27" style="fill: rgb(222, 222, 222);"/>
											<path d="M 1082.400024 303.799988 H 1163.100021 V 304.899988 H 1082.400024 V 303.799988 Z" class="st27" style="fill: rgb(222, 222, 222);"/>
										</g>
									</g>
								</g>
								<path d="M 1082.4000244140625 291.20001220703125 L 1163.199951171875 306.6000061035156 L 1163.199951171875 291.20001220703125 Z" class="st16" style="opacity: 0.13; fill: rgb(41, 31, 25);"/>
							</g>
							<g>
								<g>
									<path d="M 1072.5 306.600006 H 1153.199997 V 322.000006 H 1072.5 V 306.600006 Z" class="st13" style="fill: rgb(255, 255, 255);"/>
									<g>
										<g>
											<path d="M 1072.5 307.899994 H 1153.199997 V 308.999994 H 1072.5 V 307.899994 Z" class="st27" style="fill: rgb(222, 222, 222);"/>
											<path d="M 1072.5 310.5 H 1153.199997 V 311.6 H 1072.5 V 310.5 Z" class="st27" style="fill: rgb(222, 222, 222);"/>
										</g>
										<g>
											<path d="M 1072.5 313.600006 H 1153.199997 V 314.700006 H 1072.5 V 313.600006 Z" class="st27" style="fill: rgb(222, 222, 222);"/>
											<path d="M 1072.5 316.200012 H 1153.199997 V 317.300012 H 1072.5 V 316.200012 Z" class="st27" style="fill: rgb(222, 222, 222);"/>
											<path d="M 1072.5 319.200012 H 1153.199997 V 320.300012 H 1072.5 V 319.200012 Z" class="st27" style="fill: rgb(222, 222, 222);"/>
										</g>
									</g>
								</g>
								<path d="M 1072.5 306.3999938964844 L 1153.199951171875 321.79998779296875 L 1153.199951171875 306.3999938964844 Z" class="st16" style="opacity: 0.13; fill: rgb(41, 31, 25);"/>
							</g>
						</g>
						<g>
							<g>
								<path d="M 1223 366 H 1303.699997 V 381.4 H 1223 V 366 Z" class="st13" style="fill: rgb(255, 255, 255);"/>
								<g>
									<g>
										<path d="M 1223 367.299988 H 1303.699997 V 368.399988 H 1223 V 367.299988 Z" class="st27" style="fill: rgb(222, 222, 222);"/>
										<path d="M 1223 369.899994 H 1303.699997 V 370.999994 H 1223 V 369.899994 Z" class="st27" style="fill: rgb(222, 222, 222);"/>
									</g>
									<g>
										<path d="M 1223 373 H 1303.699997 V 374.1 H 1223 V 373 Z" class="st27" style="fill: rgb(222, 222, 222);"/>
										<path d="M 1223 375.600006 H 1303.699997 V 376.700006 H 1223 V 375.600006 Z" class="st27" style="fill: rgb(222, 222, 222);"/>
										<path d="M 1223 378.600006 H 1303.699997 V 379.700006 H 1223 V 378.600006 Z" class="st27" style="fill: rgb(222, 222, 222);"/>
									</g>
								</g>
							</g>
							<g>
								<g>
									<path d="M 1231.400024 381.399994 H 1312.100021 V 396.799994 H 1231.400024 V 381.399994 Z" class="st13" style="fill: rgb(255, 255, 255);"/>
									<g>
										<g>
											<path d="M 1231.400024 382.600006 H 1312.100021 V 383.700006 H 1231.400024 V 382.600006 Z" class="st27" style="fill: rgb(222, 222, 222);"/>
											<path d="M 1231.400024 385.299988 H 1312.100021 V 386.399988 H 1231.400024 V 385.299988 Z" class="st27" style="fill: rgb(222, 222, 222);"/>
										</g>
										<g>
											<path d="M 1231.400024 388.399994 H 1312.100021 V 389.499994 H 1231.400024 V 388.399994 Z" class="st27" style="fill: rgb(222, 222, 222);"/>
											<path d="M 1231.400024 391 H 1312.100021 V 392.1 H 1231.400024 V 391 Z" class="st27" style="fill: rgb(222, 222, 222);"/>
											<path d="M 1231.400024 394 H 1312.100021 V 395.1 H 1231.400024 V 394 Z" class="st27" style="fill: rgb(222, 222, 222);"/>
										</g>
									</g>
								</g>
								<path d="M 1231.4000244140625 381.3999938964844 L 1312.0999755859375 396.79998779296875 L 1312.0999755859375 381.3999938964844 Z" class="st16" style="opacity: 0.13; fill: rgb(41, 31, 25);"/>
							</g>
							<g>
								<g>
									<path d="M 1221.400024 396.799988 H 1302.100021 V 412.199987 H 1221.400024 V 396.799988 Z" class="st13" style="fill: rgb(255, 255, 255);"/>
									<g>
										<g>
											<path d="M 1221.400024 398 H 1302.100021 V 399.1 H 1221.400024 V 398 Z" class="st27" style="fill: rgb(222, 222, 222);"/>
											<path d="M 1221.400024 400.700012 H 1302.100021 V 401.800012 H 1221.400024 V 400.700012 Z" class="st27" style="fill: rgb(222, 222, 222);"/>
										</g>
										<g>
											<path d="M 1221.400024 403.799988 H 1302.100021 V 404.899988 H 1221.400024 V 403.799988 Z" class="st27" style="fill: rgb(222, 222, 222);"/>
											<path d="M 1221.400024 406.399994 H 1302.100021 V 407.499994 H 1221.400024 V 406.399994 Z" class="st27" style="fill: rgb(222, 222, 222);"/>
											<path d="M 1221.400024 409.399994 H 1302.100021 V 410.499994 H 1221.400024 V 409.399994 Z" class="st27" style="fill: rgb(222, 222, 222);"/>
										</g>
									</g>
								</g>
								<path d="M 1221.4000244140625 396.6000061035156 L 1302.199951171875 412 L 1302.199951171875 396.6000061035156 Z" class="st16" style="opacity: 0.13; fill: rgb(41, 31, 25);"/>
							</g>
						</g>
						<g>
							<g>
								<path class="st23" d="M1214.1,258.7l-10.8-3.6c-1.7-0.6-3.6,0.3-4.2,2.1l-19.2,57.1c-0.6,1.7,0.3,3.6,2.1,4.2l10.8,3.6&#10;&#9;&#9;&#9;&#9;&#9;&#9;&#9;&#9;&#9;c1.7,0.6,3.6-0.3,4.2-2.1l19.2-57.1C1216.8,261.2,1215.9,259.3,1214.1,258.7z" style="fill: rgb(59, 74, 138);"/>
								<path class="st13" d="M1211,262.3l-7.3-2.5c-1.3-0.4-2.7,0.3-3.2,1.6l-8.7,25.8c-0.4,1.3,0.3,2.7,1.6,3.2l7.3,2.5&#10;&#9;&#9;&#9;&#9;&#9;&#9;&#9;&#9;&#9;c1.3,0.4,2.7-0.3,3.2-1.6l8.7-25.8C1213,264.1,1212.3,262.7,1211,262.3z" style="fill: rgb(255, 255, 255);"/>
								
									<path d="M 1193.299951 311.899994 A 3.1 3.1 0 0 1 1190.199951 314.999994 A 3.1 3.1 0 0 1 1187.099951 311.899994 A 3.1 3.1 0 0 1 1190.199951 308.799994 A 3.1 3.1 0 0 1 1193.299951 311.899994 Z" transform="matrix(0.3192 -0.9477 0.9477 0.3192 514.7251 1340.2366)" class="st28" style="fill: rgb(28, 35, 66);"/>
							</g>
							<g>
								<path class="st24" d="M1250.6,255.7l-11.3-1.2c-1.8-0.2-3.4,1.1-3.6,3l-6.1,59.9c-0.2,1.8,1.1,3.4,3,3.6l11.3,1.2&#10;&#9;&#9;&#9;&#9;&#9;&#9;&#9;&#9;&#9;c1.8,0.2,3.4-1.1,3.6-3l6.1-59.9C1253.8,257.5,1252.5,255.9,1250.6,255.7z" style="fill: rgb(255, 200, 109);"/>
								<path class="st13" d="M1248.4,259.9l-7.7-0.8c-1.4-0.1-2.6,0.9-2.8,2.3l-2.8,27.1c-0.1,1.4,0.9,2.6,2.3,2.8l7.7,0.8&#10;&#9;&#9;&#9;&#9;&#9;&#9;&#9;&#9;&#9;c1.4,0.1,2.6-0.9,2.8-2.3l2.8-27.1C1250.7,261.2,1249.7,260,1248.4,259.9z" style="fill: rgb(255, 255, 255);"/>
								
									<path d="M 1242.199975 312.799988 A 3.1 3.1 0 0 1 1239.099976 315.899988 A 3.1 3.1 0 0 1 1235.999976 312.799988 A 3.1 3.1 0 0 1 1239.099976 309.699988 A 3.1 3.1 0 0 1 1242.199975 312.799988 Z" transform="matrix(0.1015 -0.9948 0.9948 0.1015 802.1246 1513.775)" class="st29" style="fill: rgb(117, 92, 50);"/>
							</g>
							<g>
								<path class="st25" d="M1232.5,256.3l-11.2-1.9c-1.8-0.3-3.5,0.9-3.8,2.7l-10,59.4c-0.3,1.8,0.9,3.5,2.7,3.8l11.2,1.9&#10;&#9;&#9;&#9;&#9;&#9;&#9;&#9;&#9;&#9;c1.8,0.3,3.5-0.9,3.8-2.7l10-59.4C1235.6,258.3,1234.4,256.6,1232.5,256.3z" style="fill: rgb(231, 69, 66);"/>
								<path class="st13" d="M1230,260.3l-7.6-1.3c-1.4-0.2-2.7,0.7-2.9,2.1l-4.5,26.9c-0.2,1.4,0.7,2.7,2.1,2.9l7.6,1.3&#10;&#9;&#9;&#9;&#9;&#9;&#9;&#9;&#9;&#9;c1.4,0.2,2.7-0.7,2.9-2.1l4.5-26.9C1232.3,261.8,1231.4,260.5,1230,260.3z" style="fill: rgb(255, 255, 255);"/>
								
									<path d="M 1220.400049 312.5 A 3.1 3.1 0 0 1 1217.300049 315.6 A 3.1 3.1 0 0 1 1214.200049 312.5 A 3.1 3.1 0 0 1 1217.300049 309.4 A 3.1 3.1 0 0 1 1220.400049 312.5 Z" transform="matrix(0.1657 -0.9862 0.9862 0.1657 707.4053 1461.2103)" class="st26" style="fill: rgb(97, 29, 28);"/>
							</g>
							<g>
								<path class="st23" d="M1268.4,255.1H1257c-1.8,0-3.3,1.5-3.3,3.3v60.2c0,1.8,1.5,3.3,3.3,3.3h11.4c1.8,0,3.3-1.5,3.3-3.3&#10;&#9;&#9;&#9;&#9;&#9;&#9;&#9;&#9;&#9;v-60.2C1271.8,256.6,1270.3,255.1,1268.4,255.1z" style="fill: rgb(59, 74, 138);"/>
								<path class="st13" d="M1266.6,259.5h-7.7c-1.4,0-2.5,1.1-2.5,2.5v27.2c0,1.4,1.1,2.5,2.5,2.5h7.7c1.4,0,2.5-1.1,2.5-2.5V262&#10;&#9;&#9;&#9;&#9;&#9;&#9;&#9;&#9;&#9;C1269.1,260.6,1268,259.5,1266.6,259.5z" style="fill: rgb(255, 255, 255);"/>
								<path d="M 1265.799951 313.100006 A 3.1 3.1 0 0 1 1262.699951 316.200006 A 3.1 3.1 0 0 1 1259.599951 313.100006 A 3.1 3.1 0 0 1 1262.699951 310.000006 A 3.1 3.1 0 0 1 1265.799951 313.100006 Z" class="st28" style="fill: rgb(28, 35, 66);"/>
							</g>
							<g>
								<path class="st24" d="M1304.5,255.1h-11.4c-1.8,0-3.3,1.5-3.3,3.3v60.2c0,1.8,1.5,3.3,3.3,3.3h11.4c1.8,0,3.3-1.5,3.3-3.3&#10;&#9;&#9;&#9;&#9;&#9;&#9;&#9;&#9;&#9;v-60.2C1307.8,256.6,1306.3,255.1,1304.5,255.1z" style="fill: rgb(255, 200, 109);"/>
								<path class="st13" d="M1302.7,259.5h-7.7c-1.4,0-2.5,1.1-2.5,2.5v27.2c0,1.4,1.1,2.5,2.5,2.5h7.7c1.4,0,2.5-1.1,2.5-2.5V262&#10;&#9;&#9;&#9;&#9;&#9;&#9;&#9;&#9;&#9;C1305.2,260.6,1304,259.5,1302.7,259.5z" style="fill: rgb(255, 255, 255);"/>
								<path d="M 1301.900049 313.100006 A 3.1 3.1 0 0 1 1298.800049 316.200006 A 3.1 3.1 0 0 1 1295.700049 313.100006 A 3.1 3.1 0 0 1 1298.800049 310.000006 A 3.1 3.1 0 0 1 1301.900049 313.100006 Z" class="st29" style="fill: rgb(117, 92, 50);"/>
							</g>
							<g>
								<path class="st25" d="M1286.5,255.1h-11.4c-1.8,0-3.3,1.5-3.3,3.3v60.2c0,1.8,1.5,3.3,3.3,3.3h11.4c1.8,0,3.3-1.5,3.3-3.3&#10;&#9;&#9;&#9;&#9;&#9;&#9;&#9;&#9;&#9;v-60.2C1289.8,256.6,1288.3,255.1,1286.5,255.1z" style="fill: rgb(231, 69, 66);"/>
								<path class="st13" d="M1284.6,259.5h-7.7c-1.4,0-2.5,1.1-2.5,2.5v27.2c0,1.4,1.1,2.5,2.5,2.5h7.7c1.4,0,2.5-1.1,2.5-2.5V262&#10;&#9;&#9;&#9;&#9;&#9;&#9;&#9;&#9;&#9;C1287.1,260.6,1286,259.5,1284.6,259.5z" style="fill: rgb(255, 255, 255);"/>
								<path d="M 1283.900049 313.100006 A 3.1 3.1 0 0 1 1280.800049 316.200006 A 3.1 3.1 0 0 1 1277.700049 313.100006 A 3.1 3.1 0 0 1 1280.800049 310.000006 A 3.1 3.1 0 0 1 1283.900049 313.100006 Z" class="st26" style="fill: rgb(97, 29, 28);"/>
							</g>
						</g>
						<g>
							<g>
								<path class="st23" d="M1214.1,437.1l-10.8-3.6c-1.7-0.6-3.6,0.3-4.2,2.1l-19.2,57.1c-0.6,1.7,0.3,3.6,2.1,4.2l10.8,3.6&#10;&#9;&#9;&#9;&#9;&#9;&#9;&#9;&#9;&#9;c1.7,0.6,3.6-0.3,4.2-2.1l19.2-57.1C1216.8,439.5,1215.9,437.7,1214.1,437.1z" style="fill: rgb(59, 74, 138);"/>
								<path class="st13" d="M1211,440.6l-7.3-2.5c-1.3-0.4-2.7,0.3-3.2,1.6l-8.7,25.8c-0.4,1.3,0.3,2.7,1.6,3.2l7.3,2.5&#10;&#9;&#9;&#9;&#9;&#9;&#9;&#9;&#9;&#9;c1.3,0.4,2.7-0.3,3.2-1.6l8.7-25.8C1213,442.5,1212.3,441.1,1211,440.6z" style="fill: rgb(255, 255, 255);"/>
								
									<path d="M 1193.299951 490.200012 A 3.1 3.1 0 0 1 1190.199951 493.300012 A 3.1 3.1 0 0 1 1187.099951 490.200012 A 3.1 3.1 0 0 1 1190.199951 487.100012 A 3.1 3.1 0 0 1 1193.299951 490.200012 Z" transform="matrix(0.3192 -0.9477 0.9477 0.3192 345.686 1461.6663)" class="st28" style="fill: rgb(28, 35, 66);"/>
							</g>
							<g>
								<path class="st24" d="M1250.6,434.3l-11.3-1.2c-1.8-0.2-3.4,1.1-3.6,3l-6.1,59.9c-0.2,1.8,1.1,3.4,3,3.6l11.3,1.2&#10;&#9;&#9;&#9;&#9;&#9;&#9;&#9;&#9;&#9;c1.8,0.2,3.4-1.1,3.6-3l6.1-59.9C1253.8,436.1,1252.5,434.4,1250.6,434.3z" style="fill: rgb(255, 200, 109);"/>
								<path class="st13" d="M1248.4,438.4l-7.7-0.8c-1.4-0.1-2.6,0.9-2.8,2.3l-2.8,27.1c-0.1,1.4,0.9,2.6,2.3,2.8l7.7,0.8&#10;&#9;&#9;&#9;&#9;&#9;&#9;&#9;&#9;&#9;c1.4,0.1,2.6-0.9,2.8-2.3l2.8-27.1C1250.7,439.8,1249.7,438.6,1248.4,438.4z" style="fill: rgb(255, 255, 255);"/>
								
									<path d="M 1242.199975 491.399994 A 3.1 3.1 0 0 1 1239.099976 494.499994 A 3.1 3.1 0 0 1 1235.999976 491.399994 A 3.1 3.1 0 0 1 1239.099976 488.299994 A 3.1 3.1 0 0 1 1242.199975 491.399994 Z" transform="matrix(0.1015 -0.9948 0.9948 0.1015 624.515 1674.2153)" class="st29" style="fill: rgb(117, 92, 50);"/>
							</g>
							<g>
								<path class="st25" d="M1232.5,434.9l-11.2-1.9c-1.8-0.3-3.5,0.9-3.8,2.7l-10,59.4c-0.3,1.8,0.9,3.5,2.7,3.8l11.2,1.9&#10;&#9;&#9;&#9;&#9;&#9;&#9;&#9;&#9;&#9;c1.8,0.3,3.5-0.9,3.8-2.7l10-59.4C1235.6,436.9,1234.4,435.2,1232.5,434.9z" style="fill: rgb(231, 69, 66);"/>
								<path class="st13" d="M1230,438.9l-7.6-1.3c-1.4-0.2-2.7,0.7-2.9,2.1l-4.5,26.9c-0.2,1.4,0.7,2.7,2.1,2.9l7.6,1.3&#10;&#9;&#9;&#9;&#9;&#9;&#9;&#9;&#9;&#9;c1.4,0.2,2.7-0.7,2.9-2.1l4.5-26.9C1232.3,440.4,1231.4,439.1,1230,438.9z" style="fill: rgb(255, 255, 255);"/>
								
									<path d="M 1220.400049 491.200012 A 3.1 3.1 0 0 1 1217.300049 494.300012 A 3.1 3.1 0 0 1 1214.200049 491.200012 A 3.1 3.1 0 0 1 1217.300049 488.100012 A 3.1 3.1 0 0 1 1220.400049 491.200012 Z" transform="matrix(0.1657 -0.9862 0.9862 0.1657 531.2192 1610.2626)" class="st26" style="fill: rgb(97, 29, 28);"/>
							</g>
							<g>
								<path class="st23" d="M1268.4,433.9H1257c-1.8,0-3.3,1.5-3.3,3.3v60.2c0,1.8,1.5,3.3,3.3,3.3h11.4c1.8,0,3.3-1.5,3.3-3.3&#10;&#9;&#9;&#9;&#9;&#9;&#9;&#9;&#9;&#9;v-60.2C1271.8,435.4,1270.3,433.9,1268.4,433.9z" style="fill: rgb(59, 74, 138);"/>
								<path class="st13" d="M1266.6,438.3h-7.7c-1.4,0-2.5,1.1-2.5,2.5v27.2c0,1.4,1.1,2.5,2.5,2.5h7.7c1.4,0,2.5-1.1,2.5-2.5&#10;&#9;&#9;&#9;&#9;&#9;&#9;&#9;&#9;&#9;v-27.2C1269.1,439.4,1268,438.3,1266.6,438.3z" style="fill: rgb(255, 255, 255);"/>
								<path d="M 1265.799951 491.899994 A 3.1 3.1 0 0 1 1262.699951 494.999994 A 3.1 3.1 0 0 1 1259.599951 491.899994 A 3.1 3.1 0 0 1 1262.699951 488.799994 A 3.1 3.1 0 0 1 1265.799951 491.899994 Z" class="st28" style="fill: rgb(28, 35, 66);"/>
							</g>
							<g>
								<path class="st24" d="M1304.5,433.9h-11.4c-1.8,0-3.3,1.5-3.3,3.3v60.2c0,1.8,1.5,3.3,3.3,3.3h11.4c1.8,0,3.3-1.5,3.3-3.3&#10;&#9;&#9;&#9;&#9;&#9;&#9;&#9;&#9;&#9;v-60.2C1307.8,435.4,1306.3,433.9,1304.5,433.9z" style="fill: rgb(255, 200, 109);"/>
								<path class="st13" d="M1302.7,438.3h-7.7c-1.4,0-2.5,1.1-2.5,2.5v27.2c0,1.4,1.1,2.5,2.5,2.5h7.7c1.4,0,2.5-1.1,2.5-2.5&#10;&#9;&#9;&#9;&#9;&#9;&#9;&#9;&#9;&#9;v-27.2C1305.2,439.4,1304,438.3,1302.7,438.3z" style="fill: rgb(255, 255, 255);"/>
								<path d="M 1301.900049 491.899994 A 3.1 3.1 0 0 1 1298.800049 494.999994 A 3.1 3.1 0 0 1 1295.700049 491.899994 A 3.1 3.1 0 0 1 1298.800049 488.799994 A 3.1 3.1 0 0 1 1301.900049 491.899994 Z" class="st29" style="fill: rgb(117, 92, 50);"/>
							</g>
							<g>
								<path class="st25" d="M1286.5,433.9h-11.4c-1.8,0-3.3,1.5-3.3,3.3v60.2c0,1.8,1.5,3.3,3.3,3.3h11.4c1.8,0,3.3-1.5,3.3-3.3&#10;&#9;&#9;&#9;&#9;&#9;&#9;&#9;&#9;&#9;v-60.2C1289.8,435.4,1288.3,433.9,1286.5,433.9z" style="fill: rgb(231, 69, 66);"/>
								<path class="st13" d="M1284.6,438.3h-7.7c-1.4,0-2.5,1.1-2.5,2.5v27.2c0,1.4,1.1,2.5,2.5,2.5h7.7c1.4,0,2.5-1.1,2.5-2.5&#10;&#9;&#9;&#9;&#9;&#9;&#9;&#9;&#9;&#9;v-27.2C1287.1,439.4,1286,438.3,1284.6,438.3z" style="fill: rgb(255, 255, 255);"/>
								<path d="M 1283.900049 491.899994 A 3.1 3.1 0 0 1 1280.800049 494.999994 A 3.1 3.1 0 0 1 1277.700049 491.899994 A 3.1 3.1 0 0 1 1280.800049 488.799994 A 3.1 3.1 0 0 1 1283.900049 491.899994 Z" class="st26" style="fill: rgb(97, 29, 28);"/>
							</g>
						</g>
						<g>
							<path class="st30" d="M1070.2,345.3h-11.4c-1.8,0-3.3,1.5-3.3,3.3v60.2c0,1.8,1.5,3.3,3.3,3.3h11.4c1.8,0,3.3-1.5,3.3-3.3&#10;&#9;&#9;&#9;&#9;&#9;&#9;&#9;&#9;v-60.2C1073.5,346.7,1072.1,345.3,1070.2,345.3z" style="fill: rgb(66, 138, 59);"/>
							<path class="st13" d="M1068.4,349.6h-7.7c-1.4,0-2.5,1.1-2.5,2.5v27.2c0,1.4,1.1,2.5,2.5,2.5h7.7c1.4,0,2.5-1.1,2.5-2.5&#10;&#9;&#9;&#9;&#9;&#9;&#9;&#9;&#9;v-27.2C1070.9,350.8,1069.8,349.6,1068.4,349.6z" style="fill: rgb(255, 255, 255);"/>
							<path d="M 1067.6 403.299988 A 3.1 3.1 0 0 1 1064.5 406.399988 A 3.1 3.1 0 0 1 1061.4 403.299988 A 3.1 3.1 0 0 1 1064.5 400.199988 A 3.1 3.1 0 0 1 1067.6 403.299988 Z" class="st31" style="fill: rgb(34, 71, 31);"/>
						</g>
						<g>
							<path class="st32" d="M1106.3,345.3h-11.4c-1.8,0-3.3,1.5-3.3,3.3v60.2c0,1.8,1.5,3.3,3.3,3.3h11.4c1.8,0,3.3-1.5,3.3-3.3&#10;&#9;&#9;&#9;&#9;&#9;&#9;&#9;&#9;v-60.2C1109.6,346.7,1108.1,345.3,1106.3,345.3z" style="fill: rgb(255, 109, 172);"/>
							<path class="st13" d="M1104.4,349.6h-7.7c-1.4,0-2.5,1.1-2.5,2.5v27.2c0,1.4,1.1,2.5,2.5,2.5h7.7c1.4,0,2.5-1.1,2.5-2.5&#10;&#9;&#9;&#9;&#9;&#9;&#9;&#9;&#9;v-27.2C1107,350.8,1105.8,349.6,1104.4,349.6z" style="fill: rgb(255, 255, 255);"/>
							<path d="M 1103.699975 403.299988 A 3.1 3.1 0 0 1 1100.599976 406.399988 A 3.1 3.1 0 0 1 1097.499976 403.299988 A 3.1 3.1 0 0 1 1100.599976 400.199988 A 3.1 3.1 0 0 1 1103.699975 403.299988 Z" class="st33" style="fill: rgb(186, 80, 126);"/>
						</g>
						<g>
							<path class="st34" d="M1088.3,345.3h-11.4c-1.8,0-3.3,1.5-3.3,3.3v60.2c0,1.8,1.5,3.3,3.3,3.3h11.4c1.8,0,3.3-1.5,3.3-3.3&#10;&#9;&#9;&#9;&#9;&#9;&#9;&#9;&#9;v-60.2C1091.6,346.7,1090.1,345.3,1088.3,345.3z" style="fill: rgb(190, 66, 231);"/>
							<path class="st13" d="M1086.4,349.6h-7.7c-1.4,0-2.5,1.1-2.5,2.5v27.2c0,1.4,1.1,2.5,2.5,2.5h7.7c1.4,0,2.5-1.1,2.5-2.5&#10;&#9;&#9;&#9;&#9;&#9;&#9;&#9;&#9;v-27.2C1088.9,350.8,1087.8,349.6,1086.4,349.6z" style="fill: rgb(255, 255, 255);"/>
							<path d="M 1085.699975 403.299988 A 3.1 3.1 0 0 1 1082.599976 406.399988 A 3.1 3.1 0 0 1 1079.499976 403.299988 A 3.1 3.1 0 0 1 1082.599976 400.199988 A 3.1 3.1 0 0 1 1085.699975 403.299988 Z" class="st35" style="fill: rgb(107, 37, 130);"/>
						</g>
						<g>
							<g>
								<path d="M 1070.900024 439.700012 H 1164.800026 V 500.700012 H 1070.900024 V 439.700012 Z" class="st36" style="fill: rgb(227, 227, 227);"/>
								<path class="st37" d="M1135,448.1h-34.3c-2.1,0-3.8,1.7-3.8,3.8c0,2.1,1.7,3.8,3.8,3.8h34.3c2.1,0,3.8-1.7,3.8-3.8&#10;&#9;&#9;&#9;&#9;&#9;&#9;&#9;&#9;&#9;C1138.8,449.8,1137.1,448.1,1135,448.1z" style="fill: rgb(161, 161, 161);"/>
							</g>
							<path d="M 1096.900024 470.799988 H 1138.900024 V 486.299988 H 1096.900024 V 470.799988 Z" class="st13" style="fill: rgb(255, 255, 255);"/>
						</g>
						<g>
							<g>
								<path d="M 1120.300049 351.399994 H 1214.20005 V 412.399994 H 1120.300049 V 351.399994 Z" class="st36" style="fill: rgb(227, 227, 227);"/>
								<path class="st37" d="M1184.4,359.7h-34.3c-2.1,0-3.8,1.7-3.8,3.8c0,2.1,1.7,3.8,3.8,3.8h34.3c2.1,0,3.8-1.7,3.8-3.8&#10;&#9;&#9;&#9;&#9;&#9;&#9;&#9;&#9;&#9;C1188.2,361.4,1186.5,359.7,1184.4,359.7z" style="fill: rgb(161, 161, 161);"/>
							</g>
							<path d="M 1146.300049 382.399994 H 1188.300049 V 397.899994 H 1146.300049 V 382.399994 Z" class="st13" style="fill: rgb(255, 255, 255);"/>
						</g>
						<path class="st19" d="M1314.4,229.5V160V229.5z" style="fill: rgb(89, 65, 25);"/>
					</g>
					<g>
						<g>
							<path d="M 1143.400024 182.199997 H 1224.100021 V 197.599997 H 1143.400024 V 182.199997 Z" class="st13" style="fill: rgb(255, 255, 255);"/>
							<g>
								<g>
									<path d="M 1143.400024 183.5 H 1224.100021 V 184.6 H 1143.400024 V 183.5 Z" class="st27" style="fill: rgb(222, 222, 222);"/>
									<path d="M 1143.400024 186.100006 H 1224.100021 V 187.200006 H 1143.400024 V 186.100006 Z" class="st27" style="fill: rgb(222, 222, 222);"/>
								</g>
								<g>
									<path d="M 1143.400024 189.199997 H 1224.100021 V 190.299997 H 1143.400024 V 189.199997 Z" class="st27" style="fill: rgb(222, 222, 222);"/>
									<path d="M 1143.400024 191.800003 H 1224.100021 V 192.900003 H 1143.400024 V 191.800003 Z" class="st27" style="fill: rgb(222, 222, 222);"/>
									<path d="M 1143.400024 194.800003 H 1224.100021 V 195.900003 H 1143.400024 V 194.800003 Z" class="st27" style="fill: rgb(222, 222, 222);"/>
								</g>
							</g>
						</g>
						<g>
							<g>
								<path d="M 1151.699951 197.600006 H 1232.399948 V 213.000006 H 1151.699951 V 197.600006 Z" class="st13" style="fill: rgb(255, 255, 255);"/>
								<g>
									<g>
										<path d="M 1151.699951 198.800003 H 1232.399948 V 199.900003 H 1151.699951 V 198.800003 Z" class="st27" style="fill: rgb(222, 222, 222);"/>
										<path d="M 1151.699951 201.5 H 1232.399948 V 202.6 H 1151.699951 V 201.5 Z" class="st27" style="fill: rgb(222, 222, 222);"/>
									</g>
									<g>
										<path d="M 1151.699951 204.600006 H 1232.399948 V 205.700006 H 1151.699951 V 204.600006 Z" class="st27" style="fill: rgb(222, 222, 222);"/>
										<path d="M 1151.699951 207.199997 H 1232.399948 V 208.299997 H 1151.699951 V 207.199997 Z" class="st27" style="fill: rgb(222, 222, 222);"/>
										<path d="M 1151.699951 210.100006 H 1232.399948 V 211.200006 H 1151.699951 V 210.100006 Z" class="st27" style="fill: rgb(222, 222, 222);"/>
									</g>
								</g>
							</g>
							<path d="M 1151.699951171875 197.60000610351562 L 1232.4000244140625 213 L 1232.4000244140625 197.60000610351562 Z" class="st16" style="opacity: 0.13; fill: rgb(41, 31, 25);"/>
						</g>
						<g>
							<g>
								<path d="M 1141.800049 213 H 1222.500046 V 228.4 H 1141.800049 V 213 Z" class="st13" style="fill: rgb(255, 255, 255);"/>
								<g>
									<g>
										<path d="M 1141.800049 214.199997 H 1222.500046 V 215.299997 H 1141.800049 V 214.199997 Z" class="st27" style="fill: rgb(222, 222, 222);"/>
										<path d="M 1141.800049 216.899994 H 1222.500046 V 217.999994 H 1141.800049 V 216.899994 Z" class="st27" style="fill: rgb(222, 222, 222);"/>
									</g>
									<g>
										<path d="M 1141.800049 219.899994 H 1222.500046 V 220.999994 H 1141.800049 V 219.899994 Z" class="st27" style="fill: rgb(222, 222, 222);"/>
										<path d="M 1141.800049 222.600006 H 1222.500046 V 223.700006 H 1141.800049 V 222.600006 Z" class="st27" style="fill: rgb(222, 222, 222);"/>
										<path d="M 1141.800049 225.5 H 1222.500046 V 226.6 H 1141.800049 V 225.5 Z" class="st27" style="fill: rgb(222, 222, 222);"/>
									</g>
								</g>
							</g>
							<path d="M 1141.800048828125 212.8000030517578 L 1222.5 228.1999969482422 L 1222.5 212.8000030517578 Z" class="st16" style="opacity: 0.13; fill: rgb(41, 31, 25);"/>
						</g>
					</g>
				</g>
				<defs>
					<filter id="Adobe_OpacityMaskFilter_2_" filterUnits="userSpaceOnUse" x="1334.9" y="151.2" width="65.1" height="573.8">
						<feFlood style="flood-color:white;flood-opacity:1" result="back"/>
						<feBlend in="SourceGraphic" in2="back" mode="normal"/>
					</filter>
				</defs>
				<mask maskUnits="userSpaceOnUse" x="1334.9" y="151.2" width="65.1" height="573.8" id="SVGID_6_">
					<g class="st38" style="filter: url('#Adobe_OpacityMaskFilter_2_');">
						<defs>
							<filter id="Adobe_OpacityMaskFilter_3_" filterUnits="userSpaceOnUse" x="1334.9" y="151.2" width="65.1" height="573.8">
								<feFlood style="flood-color:white;flood-opacity:1" result="back"/>
								<feBlend in="SourceGraphic" in2="back" mode="normal"/>
							</filter>
						</defs>
						<mask maskUnits="userSpaceOnUse" x="1334.9" y="151.2" width="65.1" height="573.8" id="SVGID_6_">
							<g class="st39" style="filter: url('#Adobe_OpacityMaskFilter_3_');">
							</g>
						</mask>
						<linearGradient id="SVGID_7_" gradientUnits="userSpaceOnUse" x1="1225.8846" y1="432.8706" x2="1496.722" y2="445.8485">
							<stop offset="0" style="stop-color:#FFFFFF"/>
							<stop offset="0.1554" style="stop-color:#CBCBCB"/>
							<stop offset="0.3877" style="stop-color:#848484"/>
							<stop offset="0.5969" style="stop-color:#4B4B4B"/>
							<stop offset="0.775" style="stop-color:#222222"/>
							<stop offset="0.9151" style="stop-color:#090909"/>
							<stop offset="1" style="stop-color:#000000"/>
						</linearGradient>
						<path d="M 1334.9000244140625 151.1999969482422 L 1400 340.6000061035156 L 1400 725 L 1334.9000244140625 725 Z" class="st40" style="mask: url('#SVGID_6_'); fill: url('#SVGID_7_');"/>
					</g>
				</mask>
				<linearGradient id="SVGID_8_" gradientUnits="userSpaceOnUse" x1="1225.8846" y1="432.8706" x2="1496.722" y2="445.8485">
					<stop offset="0" style="stop-color:#000000"/>
					<stop offset="0.1554" style="stop-color:#343434"/>
					<stop offset="0.3877" style="stop-color:#7B7B7B"/>
					<stop offset="0.5969" style="stop-color:#B4B4B4"/>
					<stop offset="0.775" style="stop-color:#DDDDDD"/>
					<stop offset="0.9151" style="stop-color:#F6F6F6"/>
					<stop offset="1" style="stop-color:#FFFFFF"/>
				</linearGradient>
				<path d="M 1334.9000244140625 151.1999969482422 L 1400 340.6000061035156 L 1400 725 L 1334.9000244140625 725 Z" class="st41" style="opacity: 0.49; fill: url('#SVGID_8_');"/>
			</g>
			<g>
				<g>
					<g>
						<path d="M 852.099976 154.399994 H 959.599976 V 285.399994 H 852.099976 V 154.399994 Z" class="st10" style="fill: rgb(238, 255, 255);"/>
						<g>
							<path class="st42" d="M963.5,288.7H848.1V151.2h115.3V288.7z M856,282.2h99.6V157.7H856V282.2z" style="fill: rgb(67, 92, 99);"/>
						</g>
					</g>
					<g>
						<path class="st43" d="M892.1,205.8c-7.5,0-13.7-6.1-13.7-13.7c0-7.5,6.1-13.7,13.7-13.7c7.5,0,13.7,6.1,13.7,13.7&#10;&#9;&#9;&#9;&#9;&#9;&#9;&#9;C905.8,199.6,899.7,205.8,892.1,205.8z M892.1,180.4c-6.4,0-11.7,5.2-11.7,11.7c0,6.4,5.2,11.7,11.7,11.7&#10;&#9;&#9;&#9;&#9;&#9;&#9;&#9;c6.4,0,11.7-5.2,11.7-11.7C903.8,185.7,898.6,180.4,892.1,180.4z" style="fill: rgb(150, 150, 150);"/>
					</g>
					<g>
						<path class="st43" d="M912.4,267.6c-14.5,0-26.3-11.8-26.3-26.3c0-14.5,11.8-26.3,26.3-26.3c14.5,0,26.3,11.8,26.3,26.3&#10;&#9;&#9;&#9;&#9;&#9;&#9;&#9;C938.7,255.8,926.9,267.6,912.4,267.6z M912.4,218.8c-12.4,0-22.5,10.1-22.5,22.5c0,12.4,10.1,22.5,22.5,22.5&#10;&#9;&#9;&#9;&#9;&#9;&#9;&#9;c12.4,0,22.5-10.1,22.5-22.5C934.9,228.9,924.8,218.8,912.4,218.8z" style="fill: rgb(150, 150, 150);"/>
					</g>
					<path d="M 856 157.6999969482422 L 955.5999755859375 282.20001220703125 L 955.5999755859375 157.6999969482422 Z" class="st16" style="opacity: 0.13; fill: rgb(41, 31, 25);"/>
				</g>
				<defs>
					<filter id="Adobe_OpacityMaskFilter_4_" filterUnits="userSpaceOnUse" x="848.1" y="289" width="174.9" height="31.3">
						<feFlood style="flood-color:white;flood-opacity:1" result="back"/>
						<feBlend in="SourceGraphic" in2="back" mode="normal"/>
					</filter>
				</defs>
				<mask maskUnits="userSpaceOnUse" x="848.1" y="289" width="174.9" height="31.3" id="SVGID_9_">
					<g class="st44" style="filter: url('#Adobe_OpacityMaskFilter_4_');">
						<defs>
							<filter id="Adobe_OpacityMaskFilter_5_" filterUnits="userSpaceOnUse" x="848.1" y="289" width="174.9" height="31.3">
								<feFlood style="flood-color:white;flood-opacity:1" result="back"/>
								<feBlend in="SourceGraphic" in2="back" mode="normal"/>
							</filter>
						</defs>
						<mask maskUnits="userSpaceOnUse" x="848.1" y="289" width="174.9" height="31.3" id="SVGID_9_">
							<g class="st45" style="filter: url('#Adobe_OpacityMaskFilter_5_');">
							</g>
						</mask>
						<linearGradient id="SVGID_10_" gradientUnits="userSpaceOnUse" x1="883.156" y1="253.0287" x2="1007.1592" y2="375.0936">
							<stop offset="0" style="stop-color:#FFFFFF"/>
							<stop offset="0.1554" style="stop-color:#CBCBCB"/>
							<stop offset="0.3877" style="stop-color:#848484"/>
							<stop offset="0.5969" style="stop-color:#4B4B4B"/>
							<stop offset="0.775" style="stop-color:#222222"/>
							<stop offset="0.9151" style="stop-color:#090909"/>
							<stop offset="1" style="stop-color:#000000"/>
						</linearGradient>
						<path d="M 1023 320.29998779296875 L 907.7000122070312 320.29998779296875 L 848.0999755859375 289 L 963.5 289 Z" class="st46" style="mask: url('#SVGID_9_'); fill: url('#SVGID_10_');"/>
					</g>
				</mask>
				<linearGradient id="SVGID_11_" gradientUnits="userSpaceOnUse" x1="883.156" y1="253.0287" x2="1007.1592" y2="375.0936">
					<stop offset="0" style="stop-color:#000000"/>
					<stop offset="0.1554" style="stop-color:#343434"/>
					<stop offset="0.3877" style="stop-color:#7B7B7B"/>
					<stop offset="0.5969" style="stop-color:#B4B4B4"/>
					<stop offset="0.775" style="stop-color:#DDDDDD"/>
					<stop offset="0.9151" style="stop-color:#F6F6F6"/>
					<stop offset="1" style="stop-color:#FFFFFF"/>
				</linearGradient>
				<path d="M 1023 320.29998779296875 L 907.7000122070312 320.29998779296875 L 848.0999755859375 289 L 963.5 289 Z" class="st47" style="opacity: 0.18; fill: url('#SVGID_11_');"/>
			</g>
			<g>
				<g>
					<g>
						<path d="M 859.400024 323.100006 H 952.300026 V 436.300003 H 859.400024 V 323.100006 Z" class="st10" style="fill: rgb(238, 255, 255);"/>
						<g>
							<g>
								<path d="M 873.200012 341.399994 H 936.800011 V 346.099994 H 873.200012 V 341.399994 Z" class="st43" style="fill: rgb(150, 150, 150);"/>
								<path d="M 873.200012 351.899994 H 936.800011 V 356.599994 H 873.200012 V 351.899994 Z" class="st43" style="fill: rgb(150, 150, 150);"/>
							</g>
							<g>
								<path d="M 873.200012 361.799988 H 936.800011 V 366.499988 H 873.200012 V 361.799988 Z" class="st43" style="fill: rgb(150, 150, 150);"/>
								<path d="M 873.200012 372.299988 H 936.800011 V 376.999988 H 873.200012 V 372.299988 Z" class="st43" style="fill: rgb(150, 150, 150);"/>
							</g>
							<g>
								<path d="M 876.599976 382.200012 H 933.299976 V 386.900012 H 876.599976 V 382.200012 Z" class="st43" style="fill: rgb(150, 150, 150);"/>
								<path d="M 876.599976 392.700012 H 933.299976 V 397.400012 H 876.599976 V 392.700012 Z" class="st43" style="fill: rgb(150, 150, 150);"/>
							</g>
							<g>
								<path d="M 876.599976 402.600006 H 933.299976 V 407.300006 H 876.599976 V 402.600006 Z" class="st43" style="fill: rgb(150, 150, 150);"/>
								<path d="M 876.599976 413.100006 H 933.299976 V 417.800006 H 876.599976 V 413.100006 Z" class="st43" style="fill: rgb(150, 150, 150);"/>
							</g>
						</g>
						<g>
							<path class="st42" d="M955.6,439.1H856V320.3h99.6V439.1z M862.8,433.5h86.1V325.9h-86.1V433.5z" style="fill: rgb(67, 92, 99);"/>
						</g>
					</g>
					<path d="M 862.7999877929688 325.8999938964844 L 948.9000244140625 433.5 L 948.9000244140625 325.8999938964844 Z" class="st16" style="opacity: 0.13; fill: rgb(41, 31, 25);"/>
				</g>
				<defs>
					<filter id="Adobe_OpacityMaskFilter_6_" filterUnits="userSpaceOnUse" x="856" y="439" width="159.2" height="31.3">
						<feFlood style="flood-color:white;flood-opacity:1" result="back"/>
						<feBlend in="SourceGraphic" in2="back" mode="normal"/>
					</filter>
				</defs>
				<mask maskUnits="userSpaceOnUse" x="856" y="439" width="159.2" height="31.3" id="SVGID_12_">
					<g class="st48" style="filter: url('#Adobe_OpacityMaskFilter_6_');">
						<defs>
							<filter id="Adobe_OpacityMaskFilter_7_" filterUnits="userSpaceOnUse" x="856" y="439" width="159.2" height="31.3">
								<feFlood style="flood-color:white;flood-opacity:1" result="back"/>
								<feBlend in="SourceGraphic" in2="back" mode="normal"/>
							</filter>
						</defs>
						<mask maskUnits="userSpaceOnUse" x="856" y="439" width="159.2" height="31.3" id="SVGID_12_">
							<g class="st49" style="filter: url('#Adobe_OpacityMaskFilter_7_');">
							</g>
						</mask>
						<linearGradient id="SVGID_13_" gradientUnits="userSpaceOnUse" x1="860.8015" y1="425.5348" x2="1009.3318" y2="483.4506">
							<stop offset="0" style="stop-color:#FFFFFF"/>
							<stop offset="0.1554" style="stop-color:#CBCBCB"/>
							<stop offset="0.3877" style="stop-color:#848484"/>
							<stop offset="0.5969" style="stop-color:#4B4B4B"/>
							<stop offset="0.775" style="stop-color:#222222"/>
							<stop offset="0.9151" style="stop-color:#090909"/>
							<stop offset="1" style="stop-color:#000000"/>
						</linearGradient>
						<path d="M 1015.2000122070312 470.3999938964844 L 915.5 470.3999938964844 L 856 439 L 955.5999755859375 439 Z" class="st50" style="mask: url('#SVGID_12_'); fill: url('#SVGID_13_');"/>
					</g>
				</mask>
				<linearGradient id="SVGID_14_" gradientUnits="userSpaceOnUse" x1="860.8015" y1="425.5348" x2="1009.3318" y2="483.4506">
					<stop offset="0" style="stop-color:#000000"/>
					<stop offset="0.1554" style="stop-color:#343434"/>
					<stop offset="0.3877" style="stop-color:#7B7B7B"/>
					<stop offset="0.5969" style="stop-color:#B4B4B4"/>
					<stop offset="0.775" style="stop-color:#DDDDDD"/>
					<stop offset="0.9151" style="stop-color:#F6F6F6"/>
					<stop offset="1" style="stop-color:#FFFFFF"/>
				</linearGradient>
				<path d="M 1015.2000122070312 470.3999938964844 L 915.5 470.3999938964844 L 856 439 L 955.5999755859375 439 Z" class="st51" style="opacity: 0.18; fill: url('#SVGID_14_');"/>
			</g>
			<g>
				<g>
					<path class="st52" d="M606.1,629.4H441.3V437.7c0-18.5,15-33.5,33.5-33.5h97.8c18.5,0,33.5,15,33.5,33.5V629.4z" style="fill: rgb(98, 39, 147);"/>
					<path class="st53" d="M574.7,404.2h-34.2c17.4,0,31.5,15.7,31.5,35v190.1h34.2V439.2C606.1,419.9,592,404.2,574.7,404.2z" style="fill: rgb(84, 34, 128);"/>
				</g>
				<g>
					<g>
						<path class="st54" d="M350,530.4h22.3c5.5,0,9.9,4.4,9.9,9.9v4.2h-46.3C335.9,536.7,342.2,530.4,350,530.4z" style="fill: rgb(210, 215, 218);"/>
						<path class="st55" d="M337.1,538.8h22.3c1.2,0,2.1-0.9,2.1-2.1c0-2.3-0.7-4.5-1.8-6.4H350&#10;&#9;&#9;&#9;&#9;&#9;&#9;&#9;C344.2,530.4,339.3,533.9,337.1,538.8z" style="fill: rgb(229, 234, 237);"/>
					</g>
					<path class="st56" d="M394,528.5c-3.5-2.8-7.6-2-12.7-5.5c-0.8-0.5-3.2-1.6-4.1-1.6c-4.1,0.2-10.3,1.3-13.9,2.5&#10;&#9;&#9;&#9;&#9;&#9;&#9;c-6.7,2.2-19.1,4.3-18.8,8.4c0.2,3.9,9.1,0.7,12.4-0.4c5.1-1.7,16.4-2.9,20.5,0.6c2.8,2.4-10.4,1.7-13.3,4.3&#10;&#9;&#9;&#9;&#9;&#9;&#9;c-2.2,1.9-0.7,3.7,3.1,3.7c5.5,0,18.5,2.3,21.8-1.2c5-5.4,7.9-5.9,9.2-5.8C400.7,533.6,396.1,530.2,394,528.5z" style="fill: rgb(254, 168, 153);"/>
					<path class="st57" d="M546.9,360.9c0,9.9-2,19.8-4.6,29.4c-1,3.8-2.2,7.6-2,11.5c0.4,6.9,5.1,13.4,3.6,20.1&#10;&#9;&#9;&#9;&#9;&#9;&#9;c-1.1,4.7-5,8.4-6.1,13.1c-0.8,3.5,0.2,7.2,2,10.4c1.8,3.1,4.2,5.8,6.7,8.4c-7.9,6.3-18.1,9.8-28.2,9.6&#10;&#9;&#9;&#9;&#9;&#9;&#9;c-5.1-0.1-10.2-1.1-14.6-3.6c-6.4-3.5-11-9.9-13.3-16.9c-2.3-7-2.4-14.5-1.4-21.7c1-7.6,3.3-15.1,6.7-22&#10;&#9;&#9;&#9;&#9;&#9;&#9;c4-8.2,9.5-15.6,15-22.9c4.4-5.9,8.8-11.8,13.2-17.7c1.6-2.1,3.2-4.3,4.3-6.7c1.1-2.5,1.6-5.2,2-7.9c0.9-5.7,0.9-11.5,1.6-17.2&#10;&#9;&#9;&#9;&#9;&#9;&#9;C545.3,329.1,547,350.5,546.9,360.9z" style="fill: rgb(194, 113, 62);"/>
					<path class="st57" d="M444.2,360.9c0,9.9,2,19.8,4.6,29.4c1,3.8,2.2,7.6,2,11.5c-0.4,6.9-5.1,13.4-3.6,20.1&#10;&#9;&#9;&#9;&#9;&#9;&#9;c1.1,4.7,5,8.4,6.1,13.1c0.8,3.5-0.2,7.2-2,10.4c-1.8,3.1-4.2,5.8-6.7,8.4c7.9,6.3,18.1,9.8,28.2,9.6&#10;&#9;&#9;&#9;&#9;&#9;&#9;c5.1-0.1,10.2-1.1,14.6-3.6c6.4-3.5,11-9.9,13.3-16.9c2.3-7,2.4-14.5,1.4-21.7c-1-7.6-3.3-15.1-6.7-22c-4-8.2-9.5-15.6-15-22.9&#10;&#9;&#9;&#9;&#9;&#9;&#9;c-4.4-5.9-8.8-11.8-13.2-17.7c-1.6-2.1-3.2-4.3-4.3-6.7c-1.1-2.5-1.6-5.2-2-7.9c-0.9-5.7-0.9-11.5-1.6-17.2&#10;&#9;&#9;&#9;&#9;&#9;&#9;C445.8,329.1,444.1,350.5,444.2,360.9z" style="fill: rgb(194, 113, 62);"/>
					<path class="st58" d="M467.1,441.7l-4.6,0.8c-6.3,1.1-11.6,5.6-13.7,11.7l-21.5,62.3c-0.8,2.3-3,3.9-5.5,3.9h-32.6&#10;&#9;&#9;&#9;&#9;&#9;&#9;c-2.2,0-4,1.8-4,4v16.3c0,2.2,1.8,4,4,4h54.4c2.5,0,4.8-1.3,6.1-3.5l28.1-46.6l-4.1-47.8C473.4,443.4,470.4,441.1,467.1,441.7z&#10;&#9;&#9;&#9;&#9;&#9;&#9;" style="fill: rgb(5, 102, 109);"/>
					<path class="st56" d="M483.7,437.6v-33.4h28.7v33.4c0,4.2,3.4,7.6,7.6,7.7l2.4,0c10.4,0.1,18.7,8.5,18.7,18.9v37.5h-84.4&#10;&#9;&#9;&#9;&#9;&#9;&#9;l5.8-37.6c0-10.4,2.5-18.7,12.9-18.8l0.9,0C480.3,445.2,483.7,441.8,483.7,437.6z" style="fill: rgb(254, 168, 153);"/>
					<path class="st59" d="M483.7,437.2v-33h28.7v19.1C504.6,431.4,495,436.9,483.7,437.2z" style="fill: rgb(219, 144, 132);"/>
					<g>
						
							<path d="M 553.399975 382.700012 A 17.299999 13.4 0 0 1 536.099976 396.100012 A 17.299999 13.4 0 0 1 518.799976 382.700012 A 17.299999 13.4 0 0 1 536.099976 369.300013 A 17.299999 13.4 0 0 1 553.399975 382.700012 Z" transform="matrix(0.4232 -0.906 0.906 0.4232 -37.5418 706.4875)" class="st56" style="fill: rgb(254, 168, 153);"/>
						
							<path d="M 547.099976 382.700012 A 11 8.5 0 0 1 536.099976 391.200012 A 11 8.5 0 0 1 525.099976 382.700012 A 11 8.5 0 0 1 536.099976 374.200012 A 11 8.5 0 0 1 547.099976 382.700012 Z" transform="matrix(0.4232 -0.906 0.906 0.4232 -37.542 706.4872)" class="st60" style="fill: rgb(235, 155, 142);"/>
					</g>
					<path class="st56" d="M538.8,364.3c0-26.3-20.2-47.5-45.2-47.5c-25,0-45.2,21.3-45.2,47.5c0,26.3,8.6,66.9,41.2,66.9&#10;&#9;&#9;&#9;&#9;&#9;&#9;C520.9,431.2,538.8,390.6,538.8,364.3z" style="fill: rgb(254, 168, 153);"/>
					<path class="st61" d="M532.8,440.4l-20.4-2.8c0,0-3.5,8.6-14.3,8.6c-11.2,0-14.3-8.6-14.3-8.6l-14,2.5c-3.8,0.7-6.9,3.4-8.1,7&#10;&#9;&#9;&#9;&#9;&#9;&#9;l-9.7,29.1c-4.5,13.7-4.7,28.4-0.4,42.1l4.5,14.4c0.3,1.1,0.5,2.3,0.5,3.4v8.5h93.7l9.3-34.2l-19.1-63.3&#10;&#9;&#9;&#9;&#9;&#9;&#9;C539.5,443.5,536.4,440.9,532.8,440.4z" style="fill: rgb(5, 112, 120);"/>
					<g>
						<path class="st62" d="M474.2,537c-1.1,0.8-6.5,3.7-6.1,5.1c0.7,2.8,3.6,2.5,4.9,2.1c5.7-1.8,11.3-3,18.8-2.1&#10;&#9;&#9;&#9;&#9;&#9;&#9;&#9;c1.5,0.2-3.5-4.3-3.1-5.7C491.5,526,476.2,535.6,474.2,537z" style="fill: rgb(230, 151, 139);"/>
						<path class="st56" d="M480.8,523.9c-0.9-0.3-3.5-0.7-4.4-0.4c-3.9,1.4-7.7,3.2-10.7,4.7c-6.3,3.1-12.2,7-16,13&#10;&#9;&#9;&#9;&#9;&#9;&#9;&#9;c-0.6,1-1.1,2.4-0.2,3.2c0.3,0.3,0.8,0.4,1.2,0.4c3.5,0.3,6.4-2.5,9.3-4.5c7.2-5,17.3-5.5,25-1.2c2.5,1.4,7,4.3,9.8,3.6&#10;&#9;&#9;&#9;&#9;&#9;&#9;&#9;c2.7-0.7,7.3-14.1,4.7-15.1C495.2,525.9,486.7,525.9,480.8,523.9z" style="fill: rgb(254, 168, 153);"/>
					</g>
					<path class="st57" d="M445.6,342.1c-1.2,5.9-3.8,17.1,4,39.1c-0.1-4.4-1.5-16.8,7-30.4c3.8-5.9,6.4-12.5,2.8-18.5&#10;&#9;&#9;&#9;&#9;&#9;&#9;C453.1,322,446.5,337.4,445.6,342.1z" style="fill: rgb(194, 113, 62);"/>
					<g>
						<g>
							<g>
								<path class="st63" d="M493.9,390h9.8c5.2,0,9.5-4.3,9.5-9.5v-9.7c0-1.6-1.3-2.9-2.9-2.9h-23c-1.6,0-2.9,1.3-2.9,2.9v9.7&#10;&#9;&#9;&#9;&#9;&#9;&#9;&#9;&#9;&#9;C484.4,385.7,488.6,390,493.9,390z" style="opacity: 0.6; fill: rgb(255, 255, 255);"/>
								<path class="st63" d="M457.4,390h7.3c5.2,0,9.5-4.3,9.5-9.5v-9.7c0-1.6-1.3-2.9-2.9-2.9h-20.5c-1.6,0-2.9,1.3-2.9,2.9v9.7&#10;&#9;&#9;&#9;&#9;&#9;&#9;&#9;&#9;&#9;C447.9,385.7,452.2,390,457.4,390z" style="opacity: 0.6; fill: rgb(255, 255, 255);"/>
								<g>
									<g>
										<path class="st58" d="M483.2,377.6v-6c0-2.8,2-5,4.5-5h22.1c2.5,0,4.5,2.3,4.5,5v6c0,7.5-5.5,13.6-12.2,13.6h-6.7&#10;&#9;&#9;&#9;&#9;&#9;&#9;&#9;&#9;&#9;&#9;&#9;C488.7,391.2,483.2,385.1,483.2,377.6z M487.7,369.2c-1.2,0-2.2,1.1-2.2,2.4v6c0,6.1,4.4,11,9.9,11h6.7&#10;&#9;&#9;&#9;&#9;&#9;&#9;&#9;&#9;&#9;&#9;&#9;c5.4,0,9.9-4.9,9.9-11v-6c0-1.3-1-2.4-2.2-2.4H487.7z" style="fill: rgb(5, 102, 109);"/>
									</g>
									<g>
										<path class="st58" d="M446.8,377.6v-6c0-2.8,2-5,4.5-5h19.6c2.5,0,4.5,2.3,4.5,5v6c0,7.5-5.5,13.6-12.2,13.6H459&#10;&#9;&#9;&#9;&#9;&#9;&#9;&#9;&#9;&#9;&#9;&#9;C452.3,391.2,446.8,385.1,446.8,377.6z M451.3,369.2c-1.2,0-2.2,1.1-2.2,2.4v6c0,6.1,4.4,11,9.9,11h4.2&#10;&#9;&#9;&#9;&#9;&#9;&#9;&#9;&#9;&#9;&#9;&#9;c5.4,0,9.9-4.9,9.9-11v-6c0-1.3-1-2.4-2.2-2.4H451.3z" style="fill: rgb(5, 102, 109);"/>
									</g>
								</g>
							</g>
							
								<path d="M 474.399994 373 H 484.299994 V 376.7 H 474.399994 V 373 Z" transform="matrix(-1 -1.224647e-016 1.224647e-016 -1 958.6194 749.7649)" class="st58" style="fill: rgb(5, 102, 109);"/>
						</g>
						
							<path d="M 513.200012 369.200012 H 534.900013 V 372.500012 H 513.200012 V 369.200012 Z" transform="matrix(-1 -1.224647e-016 1.224647e-016 -1 1047.9979 741.6306)" class="st58" style="fill: rgb(5, 102, 109);"/>
					</g>
					<path class="st57" d="M452.6,337.2c1.9,5.2-3.3,9.4,1.1,10.2c6,1,24.8-2.2,29.8,1.3c4.6,3.2,5.4,10,23,10.2&#10;&#9;&#9;&#9;&#9;&#9;&#9;c5.8,0.1,12.1,0.1,16.7,3.5c9,6.8,8.7,17.9,9.3,32.3c7.6-7.1,9.2-13.8,11.8-21.6c4.9-14.7,2.8-31.6-5.4-44.7&#10;&#9;&#9;&#9;&#9;&#9;&#9;c-8.3-13.1-21.5-20.1-36.8-22.8c-11.9-2.2-22.4,0.4-28.7,3C450.9,317.9,450.4,331.2,452.6,337.2z" style="fill: rgb(194, 113, 62);"/>
					<path class="st58" d="M543.6,442c9.4,1.4,17.1,8.1,19.6,17.3l19.9,71.2c2,7.1-3.3,14.1-10.7,14.1h-77.9c-1.9,0-3.4-1.5-3.4-3.4&#10;&#9;&#9;&#9;&#9;&#9;&#9;v-16.1c0-1.9,1.5-3.4,3.4-3.4h50.7c3.1,0,5.4-3,4.5-6l-21-75.8L543.6,442z" style="fill: rgb(5, 102, 109);"/>
				</g>
				<g>
					<g>
						<defs>
							<filter id="Adobe_OpacityMaskFilter_8_" filterUnits="userSpaceOnUse" x="149.6" y="354.5" width="226.7" height="193.7">
								<feFlood style="flood-color:white;flood-opacity:1" result="back"/>
								<feBlend in="SourceGraphic" in2="back" mode="normal"/>
							</filter>
						</defs>
						<mask maskUnits="userSpaceOnUse" x="149.6" y="354.5" width="226.7" height="193.7" id="SVGID_15_">
							<g class="st64" style="filter: url('#Adobe_OpacityMaskFilter_8_');">
								<defs>
									<filter id="Adobe_OpacityMaskFilter_9_" filterUnits="userSpaceOnUse" x="149.6" y="354.5" width="226.7" height="193.7">
										<feFlood style="flood-color:white;flood-opacity:1" result="back"/>
										<feBlend in="SourceGraphic" in2="back" mode="normal"/>
									</filter>
								</defs>
								<mask maskUnits="userSpaceOnUse" x="149.6" y="354.5" width="226.7" height="193.7" id="SVGID_15_">
									<g class="st65" style="filter: url('#Adobe_OpacityMaskFilter_9_');">
									</g>
								</mask>
								<linearGradient id="SVGID_16_" gradientUnits="userSpaceOnUse" x1="175.913" y1="366.9701" x2="264.8196" y2="515.5475">
									<stop offset="1.081080e-002" style="stop-color:#FFFFFF"/>
									<stop offset="1" style="stop-color:#000000"/>
								</linearGradient>
								<path d="M 149.60000610351562 390.29998779296875 L 192.39999389648438 548.2000122070312 L 376.29998779296875 548.2000122070312 L 203 354.5 Z" class="st66" style="mask: url('#SVGID_15_'); fill: url('#SVGID_16_');"/>
							</g>
						</mask>
						<linearGradient id="SVGID_17_" gradientUnits="userSpaceOnUse" x1="175.913" y1="366.9701" x2="264.8196" y2="515.5475">
							<stop offset="1.081080e-002" style="stop-color:#FFFFFF"/>
							<stop offset="1" style="stop-color:#FFFFFF"/>
						</linearGradient>
						<path d="M 149.60000610351562 390.29998779296875 L 192.39999389648438 548.2000122070312 L 376.29998779296875 548.2000122070312 L 203 354.5 Z" class="st67" style="opacity: 0.38; fill: url('#SVGID_17_');"/>
						<g>
							<g>
								<path class="st42" d="M126.4,383.4l-1.8-0.8l10.2-23.7c2.4-5.5,1.2-11.8-3.1-16.1c-4.2-4.2-4.2-11,0-15.1&#10;&#9;&#9;&#9;&#9;&#9;&#9;&#9;&#9;&#9;c2-2,4.7-3.1,7.6-3.1s5.5,1.1,7.6,3.1l7.1,7.1l-1.4,1.4l-7.1-7.1c-1.6-1.6-3.8-2.5-6.2-2.5s-4.5,0.9-6.2,2.5&#10;&#9;&#9;&#9;&#9;&#9;&#9;&#9;&#9;&#9;c-1.6,1.6-2.5,3.8-2.5,6.2s0.9,4.5,2.5,6.2c4.8,4.8,6.2,12,3.5,18.3L126.4,383.4z" style="fill: rgb(67, 92, 99);"/>
							</g>
							<g>
								<g>
									<g>
										<g>
											
												<path d="M 102.400002 433.100006 H 106.400002 V 535.100006 H 102.400002 V 433.100006 Z" transform="matrix(0.9091 -0.4166 0.4166 0.9091 -192.1867 87.5175)" class="st13" style="fill: rgb(255, 255, 255);"/>
										</g>
									</g>
									<g>
										<g>
											
												<path d="M 111.199997 433.100006 H 115.199997 V 535.100006 H 111.199997 V 433.100006 Z" transform="matrix(0.9091 -0.4166 0.4166 0.9091 -191.3913 91.1626)" class="st13" style="fill: rgb(255, 255, 255);"/>
										</g>
									</g>
								</g>
							</g>
							<g>
								<g>
									<g>
										<g>
											
												<path d="M 67.900002 389.200012 H 169.900002 V 393.200012 H 67.900002 V 389.200012 Z" transform="matrix(0.6345 -0.773 0.773 0.6345 -258.9239 234.8739)" class="st13" style="fill: rgb(255, 255, 255);"/>
										</g>
									</g>
									<g>
										<g>
											
												<path d="M 71.699997 397.100006 H 173.699997 V 401.100006 H 71.699997 V 397.100006 Z" transform="matrix(0.6345 -0.773 0.773 0.6345 -263.6006 240.7135)" class="st13" style="fill: rgb(255, 255, 255);"/>
										</g>
									</g>
								</g>
							</g>
							<path class="st42" d="M148.2,529.4h-37.5c-10.4,0-18.8,8.4-18.8,18.8l0,0h75v0C166.9,537.8,158.5,529.4,148.2,529.4z" style="fill: rgb(67, 92, 99);"/>
							<path class="st42" d="M128.2,520.6c-6.1,0-11.1,5-11.1,11.1v3.1h22.2v-3.1C139.3,525.5,134.3,520.6,128.2,520.6z" style="fill: rgb(67, 92, 99);"/>
							<path d="M 99.199997 434.799988 A 12 12 0 0 1 87.199997 446.799988 A 12 12 0 0 1 75.199997 434.799988 A 12 12 0 0 1 87.199997 422.799988 A 12 12 0 0 1 99.199997 434.799988 Z" class="st42" style="fill: rgb(67, 92, 99);"/>
							<path d="M 94.499997 434.799988 A 7.3 7.3 0 0 1 87.199997 442.099988 A 7.3 7.3 0 0 1 79.899997 434.799988 A 7.3 7.3 0 0 1 87.199997 427.499988 A 7.3 7.3 0 0 1 94.499997 434.799988 Z" class="st68" style="fill: rgb(87, 122, 130);"/>
							<g>
								
									<path d="M 188.599995 363.700012 A 18.200001 18.200001 0 0 1 170.399994 381.900013 A 18.200001 18.200001 0 0 1 152.199993 363.700012 A 18.200001 18.200001 0 0 1 170.399994 345.500011 A 18.200001 18.200001 0 0 1 188.599995 363.700012 Z" transform="matrix(0.8312 -0.556 0.556 0.8312 -173.4134 156.1538)" class="st13" style="fill: rgb(255, 255, 255);"/>
								<path class="st42" d="M186.5,338.7c-6.8-6.5-16.2-9-25-7.2l-0.4-0.6c-3.2-4.8-9.8-6.1-14.6-2.9c-4.8,3.2-6.1,9.8-2.9,14.6&#10;&#9;&#9;&#9;&#9;&#9;&#9;&#9;&#9;&#9;l0.4,0.6c-5,7.4-6.3,17.1-2.9,25.8l8.4,21.3l53.4-35.7L186.5,338.7z" style="fill: rgb(67, 92, 99);"/>
							</g>
						</g>
					</g>
					<g>
						<g>
							<g>
								<path d="M 471 542.200012 H 481.5 V 545.800012 H 471 V 542.200012 Z" class="st13" style="fill: rgb(255, 255, 255);"/>
								<path d="M 457.700012 542.200012 H 468.200012 V 545.800012 H 457.700012 V 542.200012 Z" class="st13" style="fill: rgb(255, 255, 255);"/>
							</g>
							<g>
								<path d="M 444.200012 542.200012 H 454.700012 V 545.800012 H 444.200012 V 542.200012 Z" class="st13" style="fill: rgb(255, 255, 255);"/>
								<path d="M 430.899994 542.200012 H 441.399994 V 545.800012 H 430.899994 V 542.200012 Z" class="st13" style="fill: rgb(255, 255, 255);"/>
							</g>
							<g>
								<path d="M 416 542.200012 H 426.5 V 545.800012 H 416 V 542.200012 Z" class="st13" style="fill: rgb(255, 255, 255);"/>
								<path d="M 402.700012 542.200012 H 413.200012 V 545.800012 H 402.700012 V 542.200012 Z" class="st13" style="fill: rgb(255, 255, 255);"/>
								<path d="M 389.399994 542.200012 H 399.899994 V 545.800012 H 389.399994 V 542.200012 Z" class="st13" style="fill: rgb(255, 255, 255);"/>
							</g>
							<path d="M 366.600006 543.299988 H 485.000008 V 548.199988 H 366.600006 V 543.299988 Z" class="st69" style="fill: rgb(217, 217, 217);"/>
						</g>
						<g>
							<path class="st69" d="M444.4,371.7H252.7c-8.1,0-14.7,6.6-14.7,14.7v116c0,8.1,6.6,14.7,14.7,14.7h191.8&#10;&#9;&#9;&#9;&#9;&#9;&#9;&#9;&#9;c8.1,0,14.7-6.6,14.7-14.7v-116C459.1,378.3,452.5,371.7,444.4,371.7z" style="fill: rgb(217, 217, 217);"/>
							<path class="st70" d="M336.5,457.8c-6.1,0-11.2,4.5-12,10.6l-6.2,48.7h59.9l-6.2-48.7c-0.8-6-5.9-10.6-12-10.6H336.5z" style="fill: rgb(186, 186, 186);"/>
							<path class="st13" d="M444.4,371.7H252.7c-8.1,0-14.7,6.6-14.7,14.7v6.7c0-8.1,6.6-14.7,14.7-14.7h191.8&#10;&#9;&#9;&#9;&#9;&#9;&#9;&#9;&#9;c8.1,0,14.7,6.6,14.7,14.7v-6.7C459.1,378.3,452.5,371.7,444.4,371.7z" style="fill: rgb(255, 255, 255);"/>
							<path class="st36" d="M367.1,469c-0.5-3.6-3.5-6.3-7.2-6.3h-23.5c-3.6,0-6.7,2.7-7.2,6.3l-10.1,79.2h58L367.1,469z" style="fill: rgb(227, 227, 227);"/>
							<path class="st71" d="M377.9,538.4H318c-5.4,0-9.8,4.4-9.8,9.8h79.4C387.6,542.8,383.3,538.4,377.9,538.4z" style="fill: rgb(176, 176, 176);"/>
							<path d="M 361.9 425.399994 A 13.4 13.4 0 0 1 348.5 438.799994 A 13.4 13.4 0 0 1 335.1 425.399994 A 13.4 13.4 0 0 1 348.5 411.999994 A 13.4 13.4 0 0 1 361.9 425.399994 Z" class="st71" style="fill: rgb(176, 176, 176);"/>
							<path d="M 355.8 481 A 7.3 7.3 0 0 1 348.5 488.3 A 7.3 7.3 0 0 1 341.2 481 A 7.3 7.3 0 0 1 348.5 473.7 A 7.3 7.3 0 0 1 355.8 481 Z" class="st71" style="fill: rgb(176, 176, 176);"/>
						</g>
					</g>
					<g>
						<g>
							<path d="M 205.899994 483.100006 H 209.899994 V 535.600006 H 205.899994 V 483.100006 Z" class="st72" style="fill: rgb(207, 169, 68);"/>
							<path d="M 207.89999389648438 473.79998779296875 L 205.89999389648438 483.1000061035156 L 209.89999389648438 483.1000061035156 Z" class="st73" style="fill: rgb(255, 230, 163);"/>
							<path d="M 207.3000030517578 476.3999938964844 L 208.5 476.3999938964844 L 207.89999389648438 473.79998779296875 Z" class="st74" style="fill: rgb(92, 83, 59);"/>
						</g>
						<g>
							
								<path d="M 212.100006 485.100006 H 215.800006 V 547.400005 H 212.100006 V 485.100006 Z" transform="matrix(0.9903 0.1389 -0.1389 0.9903 73.7645 -24.7002)" class="st75" style="fill: rgb(81, 101, 189);"/>
							<path class="st28" d="M220,478.2l-1.5-0.2c-0.6-0.1-1.1,0.3-1.2,0.9l-1.5,10.8l3.6,0.5l1.5-10.8&#10;&#9;&#9;&#9;&#9;&#9;&#9;&#9;&#9;C221,478.9,220.6,478.3,220,478.2z" style="fill: rgb(28, 35, 66);"/>
						</g>
						<g>
							
								<path d="M 198.399994 481.5 H 202.099994 V 543.799999 H 198.399994 V 481.5 Z" transform="matrix(0.9945 -0.1046 0.1046 0.9945 -52.5515 23.7715)" class="st75" style="fill: rgb(81, 101, 189);"/>
							<path class="st28" d="M197,474.3l-1.5,0.2c-0.6,0.1-1,0.6-0.9,1.2l1.1,10.9l3.6-0.4l-1.1-10.9&#10;&#9;&#9;&#9;&#9;&#9;&#9;&#9;&#9;C198.1,474.7,197.6,474.3,197,474.3z" style="fill: rgb(28, 35, 66);"/>
						</g>
						<path class="st76" d="M221.6,503.6h-29.9c-1.4,0-2.5,1.2-2.3,2.6l3.6,39.9c0.1,1.2,1.1,2.1,2.3,2.1h22.8&#10;&#9;&#9;&#9;&#9;&#9;&#9;&#9;c1.2,0,2.2-0.9,2.3-2.1l3.6-39.9C224.1,504.8,223,503.6,221.6,503.6z" style="fill: rgb(255, 212, 92);"/>
						<path class="st77" d="M221.6,503.6h-6.4c1.4,0,2.5,1.2,2.3,2.6l-3.6,39.9c-0.1,1.2-1.1,2.1-2.3,2.1h6.4c1.2,0,2.2-0.9,2.3-2.1&#10;&#9;&#9;&#9;&#9;&#9;&#9;&#9;l3.6-39.9C224.1,504.8,223,503.6,221.6,503.6z" style="fill: rgb(219, 181, 78);"/>
					</g>
					<g>
						<g>
							<path d="M 67.400002 548.200012 H 801.100014 V 581.600014 H 67.400002 V 548.200012 Z" class="st20" style="fill: rgb(212, 152, 59);"/>
							<path d="M 67.400002 569.400024 H 801.100014 V 581.700025 H 67.400002 V 569.400024 Z" class="st78" style="fill: rgb(171, 123, 48);"/>
						</g>
						<path d="M 94.199997 581.099976 H 774.199997 V 868.399963 H 94.199997 V 581.099976 Z" class="st79" style="fill: rgb(78, 108, 116);"/>
						<g>
							<g>
								<g>
									<path d="M 88.199997 575.5 H 112.199997 V 868.399994 H 88.199997 V 575.5 Z" class="st78" style="fill: rgb(171, 123, 48);"/>
								</g>
								<g>
									<path d="M 762.200012 575.5 H 786.200012 V 868.399994 H 762.200012 V 575.5 Z" class="st78" style="fill: rgb(171, 123, 48);"/>
								</g>
							</g>
						</g>
						<path d="M 112.19999694824219 581.5999755859375 L 762.2000122070312 868.4000244140625 L 762.2000122070312 581.5999755859375 Z" class="st42" style="fill: rgb(67, 92, 99);"/>
					</g>
					<g>
						<path class="st80" d="M528.2,480.3h-8.4c-0.7,0-1.3,0.6-1.3,1.3v1.6h11v-1.6C529.5,480.9,528.9,480.3,528.2,480.3z" style="fill: rgb(214, 148, 91);"/>
						<g>
							<path class="st81" d="M548,486.6l-1.4-3.4c-0.3-0.6-0.9-1-1.6-1h-28.9c-0.7,0-1.3,0.4-1.6,1l-1.4,3.4&#10;&#9;&#9;&#9;&#9;&#9;&#9;&#9;&#9;c-0.4,1.1,0.4,2.3,1.6,2.3h31.7C547.7,488.9,548.5,487.7,548,486.6z" style="fill: rgb(168, 116, 71);"/>
							<path class="st82" d="M546.1,490.1h-30.9c-2,0-3.6,1.7-3.5,3.7l2.6,51c0.1,1.9,1.7,3.4,3.5,3.4h25.8c1.9,0,3.4-1.5,3.5-3.4&#10;&#9;&#9;&#9;&#9;&#9;&#9;&#9;&#9;l2.6-51C549.8,491.8,548.1,490.1,546.1,490.1z" style="fill: rgb(245, 230, 191);"/>
							<path d="M 513.7999877929688 536.4000244140625 L 547.5 536.4000244140625 L 549.2999877929688 500.70001220703125 L 512 500.70001220703125 Z" class="st80" style="fill: rgb(214, 148, 91);"/>
							<path class="st80" d="M553.9,491.5l-1.9-4.6c-0.3-0.8-1.2-1.4-2.1-1.4h-38.7c-0.9,0-1.7,0.6-2.1,1.4l-1.9,4.6&#10;&#9;&#9;&#9;&#9;&#9;&#9;&#9;&#9;c-0.6,1.5,0.5,3.1,2.1,3.1h42.4C553.4,494.6,554.5,493,553.9,491.5z" style="fill: rgb(214, 148, 91);"/>
							<path d="M 545.299975 518.599976 A 14.7 14.7 0 0 1 530.599976 533.299975 A 14.7 14.7 0 0 1 515.899976 518.599976 A 14.7 14.7 0 0 1 530.599976 503.899976 A 14.7 14.7 0 0 1 545.299975 518.599976 Z" class="st13" style="fill: rgb(255, 255, 255);"/>
						</g>
					</g>
					<g>
						<g>
							<g>
								<path d="M 567.700012 525.5 H 683.500015 V 547.6 H 567.700012 V 525.5 Z" class="st13" style="fill: rgb(255, 255, 255);"/>
								<g>
									<g>
										<path d="M 567.700012 527.299988 H 683.500015 V 528.899988 H 567.700012 V 527.299988 Z" class="st27" style="fill: rgb(222, 222, 222);"/>
										<path d="M 567.700012 531.099976 H 683.500015 V 532.699976 H 567.700012 V 531.099976 Z" class="st27" style="fill: rgb(222, 222, 222);"/>
									</g>
									<g>
										<path d="M 567.700012 535.5 H 683.500015 V 537.1 H 567.700012 V 535.5 Z" class="st27" style="fill: rgb(222, 222, 222);"/>
										<path d="M 567.700012 539.299988 H 683.500015 V 540.899988 H 567.700012 V 539.299988 Z" class="st27" style="fill: rgb(222, 222, 222);"/>
										<path d="M 567.700012 543.599976 H 683.500015 V 545.199976 H 567.700012 V 543.599976 Z" class="st27" style="fill: rgb(222, 222, 222);"/>
									</g>
								</g>
							</g>
							<path d="M 567.7000122070312 531.0999755859375 L 683.5 539.2999877929688 L 683.5 525.5 Z" class="st16" style="opacity: 0.13; fill: rgb(41, 31, 25);"/>
							<g>
								
									<path d="M 564.599976 506.200012 H 680.399979 V 528.300013 H 564.599976 V 506.200012 Z" transform="matrix(0.9988 -4.795459e-002 4.795459e-002 0.9988 -24.0892 30.4448)" class="st13" style="fill: rgb(255, 255, 255);"/>
								<g>
									<g>
										
											<path d="M 564.200012 508 H 680.000015 V 509.6 H 564.200012 V 508 Z" transform="matrix(0.9988 -4.795463e-002 4.795463e-002 0.9988 -23.686 30.4157)" class="st27" style="fill: rgb(222, 222, 222);"/>
										
											<path d="M 564.299988 511.799988 H 680.099991 V 513.399988 H 564.299988 V 511.799988 Z" transform="matrix(0.9988 -4.795545e-002 4.795545e-002 0.9988 -23.8668 30.4293)" class="st27" style="fill: rgb(222, 222, 222);"/>
									</g>
									<g>
										
											<path d="M 564.5 516.200012 H 680.300003 V 517.800012 H 564.5 V 516.200012 Z" transform="matrix(0.9988 -4.795545e-002 4.795545e-002 0.9988 -24.0793 30.4446)" class="st27" style="fill: rgb(222, 222, 222);"/>
										
											<path d="M 564.700012 520 H 680.500015 V 521.6 H 564.700012 V 520 Z" transform="matrix(0.9988 -4.795459e-002 4.795459e-002 0.9988 -24.2593 30.457)" class="st27" style="fill: rgb(222, 222, 222);"/>
										
											<path d="M 564.900024 524.200012 H 680.700027 V 525.800012 H 564.900024 V 524.200012 Z" transform="matrix(0.9988 -4.795545e-002 4.795545e-002 0.9988 -24.4627 30.4722)" class="st27" style="fill: rgb(222, 222, 222);"/>
									</g>
								</g>
							</g>
							<path d="M 564.0999755859375 509 L 680.4000244140625 517.2000122070312 L 679.7999877929688 503.5 Z" class="st16" style="opacity: 0.13; fill: rgb(41, 31, 25);"/>
							<g>
								
									<path d="M 567.700012 485 H 683.500015 V 507.1 H 567.700012 V 485 Z" transform="matrix(0.9995 -3.135546e-002 3.135546e-002 0.9995 -15.2447 19.8584)" class="st13" style="fill: rgb(255, 255, 255);"/>
								<g>
									<g>
										
											<path d="M 567.400024 486.799988 H 683.200027 V 488.399988 H 567.400024 V 486.799988 Z" transform="matrix(0.9995 -3.135545e-002 3.135545e-002 0.9995 -14.9807 19.846)" class="st27" style="fill: rgb(222, 222, 222);"/>
										
											<path d="M 567.5 490.5 H 683.300003 V 492.1 H 567.5 V 490.5 Z" transform="matrix(0.9995 -3.135545e-002 3.135545e-002 0.9995 -15.0988 19.8515)" class="st27" style="fill: rgb(222, 222, 222);"/>
									</g>
									<g>
										
											<path d="M 567.599976 495 H 683.399979 V 496.6 H 567.599976 V 495 Z" transform="matrix(0.9995 -3.135631e-002 3.135631e-002 0.9995 -15.2384 19.8586)" class="st27" style="fill: rgb(222, 222, 222);"/>
										
											<path d="M 567.799988 498.700012 H 683.599991 V 500.300012 H 567.799988 V 498.700012 Z" transform="matrix(0.9995 -3.135632e-002 3.135632e-002 0.9995 -15.3565 19.8642)" class="st27" style="fill: rgb(222, 222, 222);"/>
										
											<path d="M 567.900024 503 H 683.700027 V 504.6 H 567.900024 V 503 Z" transform="matrix(0.9995 -3.135548e-002 3.135548e-002 0.9995 -15.489 19.8699)" class="st27" style="fill: rgb(222, 222, 222);"/>
									</g>
								</g>
							</g>
						</g>
						<g>
							<path class="st23" d="M692.9,460.1l-13.4,5.9c-1.9,0.8-2.8,3.1-1.9,5L711,546c0.8,1.9,3.1,2.8,5,1.9l13.4-5.9&#10;&#9;&#9;&#9;&#9;&#9;&#9;&#9;&#9;c1.9-0.8,2.8-3.1,1.9-5L697.9,462C697.1,460.1,694.8,459.2,692.9,460.1z" style="fill: rgb(59, 74, 138);"/>
							<g>
								<g>
									
										<path d="M 680.400024 473.399994 H 702.600025 V 475.999994 H 680.400024 V 473.399994 Z" transform="matrix(0.9138 -0.4061 0.4061 0.9138 -133.2015 321.6633)" class="st24" style="fill: rgb(255, 200, 109);"/>
									
										<path d="M 683.099976 479 H 705.299976 V 482.9 H 683.099976 V 479 Z" transform="matrix(0.9139 -0.4061 0.4061 0.9139 -135.498 323.3266)" class="st24" style="fill: rgb(255, 200, 109);"/>
								</g>
								<g>
									
										<path d="M 706.400024 531.900024 H 728.600025 V 534.500024 H 706.400024 V 531.900024 Z" transform="matrix(0.9138 -0.4061 0.4061 0.9138 -154.7077 337.2516)" class="st24" style="fill: rgb(255, 200, 109);"/>
									
										<path d="M 703.299988 524.299988 H 725.499989 V 528.199988 H 703.299988 V 524.299988 Z" transform="matrix(0.9139 -0.4061 0.4061 0.9139 -152.1465 335.3936)" class="st24" style="fill: rgb(255, 200, 109);"/>
								</g>
							</g>
						</g>
						<g>
							<path class="st25" d="M719.3,468.1l-11.4,9.1c-1.6,1.3-1.9,3.7-0.6,5.3l51,64.2c1.3,1.6,3.7,1.9,5.3,0.6l11.4-9.1&#10;&#9;&#9;&#9;&#9;&#9;&#9;&#9;&#9;c1.6-1.3,1.9-3.7,0.6-5.3l-51-64.2C723.3,467.1,720.9,466.8,719.3,468.1z" style="fill: rgb(231, 69, 66);"/>
							<g>
								<g>
									<g>
										
											<path d="M 710.400024 481.399994 H 732.600025 V 483.999994 H 710.400024 V 481.399994 Z" transform="matrix(0.7833 -0.6216 0.6216 0.7833 -143.7225 553.0896)" class="st26" style="fill: rgb(97, 29, 28);"/>
										
											<path d="M 714.700012 486.100006 H 736.900013 V 490.000006 H 714.700012 V 486.100006 Z" transform="matrix(0.7833 -0.6216 0.6216 0.7833 -146.1296 556.8904)" class="st26" style="fill: rgb(97, 29, 28);"/>
									</g>
									<g>
										
											<path d="M 750.200012 531.5 H 772.400013 V 534.1 H 750.200012 V 531.5 Z" transform="matrix(0.7833 -0.6216 0.6216 0.7833 -166.2616 588.6777)" class="st26" style="fill: rgb(97, 29, 28);"/>
										
											<path d="M 745.400024 524.900024 H 767.600025 V 528.800025 H 745.400024 V 524.900024 Z" transform="matrix(0.7833 -0.6216 0.6216 0.7833 -163.578 584.4374)" class="st26" style="fill: rgb(97, 29, 28);"/>
									</g>
								</g>
							</g>
							<path class="st13" d="M752.7,515.5l-18.4-22c-0.4-0.5-1.2-0.6-1.7-0.1l-3.8,3.2c-0.5,0.4-0.6,1.2-0.1,1.7l18.4,22&#10;&#9;&#9;&#9;&#9;&#9;&#9;&#9;&#9;c0.4,0.5,1.2,0.6,1.7,0.1l3.8-3.2C753,516.7,753.1,516,752.7,515.5z" style="fill: rgb(255, 255, 255);"/>
						</g>
					</g>
				</g>
			</g>
		</g>
	</g>
</g>

</svg>